<svg xmlns="http://www.w3.org/2000/svg" width="790.979" height="117.081" viewBox="0 0 790.979 117.081"><g fill-rule="evenodd" clip-rule="evenodd"><path fill="#EEE" d="M792.1 15.08v1c-.96 1.72-.48 3.59-.485 5.38-.055 24.114.015 48.228-.053 72.343-.065 1.12-.697 1.818-1.67 2.27-3.115.822-6.298.456-9.45.456-204.755.02-409.512.014-614.27.02-50.48 0-100.96-.007-151.442-.017-2.653 0-5.335.284-7.953-.458-1.334-.588-2.084-1.62-2.316-3.042.3-25.503.292-51.01-.006-76.52.23-1.946 1.347-2.95 3.28-3.084 2.488.286 4.99.183 7.486.183 255.54.005 511.078.005 766.617 0 2.332 0 4.665.07 6.992-.123 1.46-.237 2.535.328 3.27 1.59z"/><path fill="#FEFEFE" d="M7.195 14.128c-1.04.314-1.724.994-2.062 2.024.672 1.06.448 2.25.448 3.392.013 23.36.013 46.723 0 70.084 0 1.143.227 2.332-.452 3.39l1.058 2.156c3.38 1.117 6.95-.256 10.337.793 8.035 1.273 15.68 4.19 23.668 5.608 4.39.778 8.85.07 13.35.716 9.958 1.428 19.986 2.498 30.03 3.322 15.69 1.288 31.373 2.828 47.077 3.758 9.266.55 18.533 1.538 27.872 1.316 16.948-.402 33.758 2.234 50.668 2.81 9.317.318 18.647.074 27.973.118 9.825.047 19.65-.01 29.475-.007 2.48 0 5.172-.083 5.463 3.474-89.333 0-178.667-.024-268 .097-3.424.005-4.114-.67-4.1-4.096.16-36.5.145-73 .016-109.5C.004.6.617 0 3.6 0c261.666.088 523.332.088 785 0 2.98 0 3.835.573 3.577 3.588-.325 3.806-.078 7.66-.078 11.493-.704-.314-1.407-.63-2.11-.945-1.408.757-2.935.422-4.406.423-32.236.01-64.472.035-96.704 0-2.78-.717-5.63-.576-8.44-.446-8.658.397-17.085-1.58-25.628-2.33-4.988-.44-9.976-.124-14.96-.23-1.172.108-2.322-.02-3.452-.33-4.163-2.114-8.544-.097-12.793-.647-2.604.26-5.188.186-7.75-.37-5.916-1.3-11.883-.562-17.83-.46-4.607.093-9.215.27-13.815-.16-2.803-.076-5.605-.045-8.41-.02-11.168-3.45-22.7-1.696-34.06-2.384-.997-.06-2-.263-2.99-.204-19.944 1.18-39.802-1.646-59.75-1.15-43.27 1.078-86.557.932-129.834.61-9.634-.072-19.298-.36-28.946-.632-14.797-.604-29.6-.122-44.398-.236-1.89-.014-3.574.68-5.242 1.458-1.87.632-3.77.604-5.686.275-1.913-.657-3.89-.77-5.9-.77-12.663 0-25.333-.226-37.984.15-7.27.218-14.516 1.373-21.69 2.736-3.99.647-8.008.4-12.02.354-6.224-.217-12.455-.76-18.652.37-2.335.538-4.687.932-7.1.77-10.945-1.31-21.783.8-32.676 1.124-2.44.072-4.927.463-7.406.496-8.733.116-17.32 2.128-26.074 2.025-27.933.042-55.86.012-83.79.002-1.475 0-3.003.34-4.41-.43zM790.002 95.095l1.09-.958c.31-.514.643-.557 1.007-.056 0 6.5-.2 13.01.087 19.497.133 3.004-.605 3.594-3.588 3.587-51-.115-102-.083-153-.083H504.1c.376-3.962 3.497-3.392 5.99-3.407 16.967-.103 33.937-.267 50.902-.02 11.308.166 22.516-1.6 33.83-1.174 4.282.16 8.294-2.447 12.718-1.934 14.004-1.298 27.98-2.628 42.09-2.92 13.89-.288 27.84-1.708 41.6-3.4 15.43-1.897 31.103-1.317 46.318-4.68 7.602-1.68 15.317-2.463 22.94-3.9 9.835-.425 19.695.59 29.514-.55z"/><path fill="#FDFDFD" d="M608.1 112.08c-10.582 3.425-21.685.932-32.41 2.83-1.94.345-3.98.164-5.977.165-19.973.01-39.946-.002-59.92.02-2.1 0-4.45-.546-5.694 1.986h-232c-1.244-2.53-3.596-1.983-5.696-1.986-14.313-.024-28.628-.193-42.938.043-12.136.2-24.304-.42-36.3-1.424-13.264-1.11-26.49-1.102-39.727-1.744-19-.925-37.99-2.317-56.934-4.042-7.91-.72-15.918-1.038-23.684-2.21-6.47-.978-13.013-2.42-19.465-2.415-8.388.006-16.194-1.907-23.843-4.672-2.454-.886-5.987 1.305-7.417-2.45 2.877-1.27 5.907-.262 8.84-.592 2.76.632 5.17 3.018 8.335 1.68 1.323-.1 2.535.277 3.704.844 3.81 1.092 7.643 1.967 11.654 1.352 3.12.21 6.283-.217 9.36.62 5.554 2.86 11.498 2.813 17.5 2.334 4.14.442 8.36-.376 12.46.737 2.89 2.325 6.353 2.425 9.814 2.466 4.44.054 8.88-.13 13.314.183 2.762.774 5.537 1.35 8.387.383.512-.18 1.034-.29 1.568-.372 2.217-.267 4.413-.285 6.545.52 3.323 2.124 7.042 1.062 10.595 1.297 1.963.13 3.948-.103 5.892.372 5.358.994 10.713 1.025 16.067-.048 1.524-.288 3.015-.186 4.47.363 1.17.62 2.352 1.21 3.72 1.244 12.68.312 25.33 1.9 38.042.8 16.154-.7 32.25 1.394 48.405.93 17.09-.492 34.133 1.856 51.187 1.526 12.962-.25 25.924 1.728 38.865-.125 1.647-.235 3.327-.104 4.992-.104 18.818-.004 37.638-.017 56.457.002 15.31.016 30.605.255 45.914.84 18.602.712 37.265-.403 55.832-1.267 10.407-.483 20.823.616 31.138-.624 11.793-1.417 23.65-.043 35.37-1.156 8.272-.785 16.635.068 24.81-1.71 3.17.495 6.836-.275 8.765 3.41z"/><path fill="#CBCBCB" d="M792.1 94.08c-.336.02-.67.037-1.006.056 0-24.123-.015-48.246.04-72.37.003-1.907-.727-4.028.965-5.685v78z"/><path fill="#CACACA" d="M26.1 96.178H16.1c-3.277-.598-6.76.826-9.912-1.005 44.49-.03 88.98-.085 133.47-.086 216.782-.006 433.565.004 650.348.008-2.34 1.876-5.077.87-7.617.93-7.427.175-14.858.118-22.29.15-5.206 1.54-10.594.997-15.9 1.385-5.315-.037-10.63-.02-15.946-.008-4.03-.022-8.06-.015-12.09-.006-4.026-.014-8.05-.01-12.075 0-4.98-.014-9.956-.01-14.934 0-4.08-.013-8.16-.01-12.242.003-19.27-.883-38.42 1.542-57.636 2.194-17.552.597-35.083 1.876-52.66 1.774-2.11-.013-4.365.457-6.203-1.146-.464-3.448 2.355-2.562 3.908-2.633 5.946-.275 11.906-.082 17.86-.125 1.816-.013 3.644.113 5.432-.34.913-.178 1.84-.176 2.764-.187 7.563-.223 15.14.432 22.693-.356 2.953-.3 5.916-.07 8.87-.142 2.777-.008 5.557.014 8.336-.017-2.842.005-5.684-.002-8.53 0-4.6-.276-9.16.394-13.743.507-6.313.014-12.627-.027-18.94.022-7.986.905-16.003.226-24.003.448-11.975-.017-23.95-.01-35.925 0-11.717-.017-23.434-.01-35.15.002-72.912-.017-145.82-.007-218.73 0-19.327-.02-38.656-.008-57.983 0-10.965.127-21.914-.812-32.88-.473-5.328.354-10.61-.71-15.934-.508-3.598-.147-7.223.314-10.804-.295 3.574.64 7.196.157 10.793.312 21.105.622 42.213.943 63.322 1.143 8.048 1.003 16.14.868 24.226.91 3.477.018 6.968-.278 10.43.332 2.255.832 4.606.635 6.932.637 15.83.012 31.658.01 47.488 0 4.154.133 8.323-.264 12.467.328 2.078.766 4.247.675 6.404.675 34.877.005 69.754.005 104.63-.002 2.156 0 4.33.135 6.41-.635 3.182-.586 6.4-.257 9.6-.364 13.134.012 26.268.005 39.398-.002 8.346-.31 16.727.732 25.048-.63 1.242-.32 2.513-.315 3.78-.35 8.465-.02 16.928-.042 25.39.014 2.108.014 4.377-.414 6.095 1.404.154 1.59-1.024 1.905-2.16 2.218-.973.267-1.982.276-2.98.25-19.306-.475-38.587.76-57.87 1.207-60.933 1.417-121.867.835-182.796.595-19.277-.075-38.608-.066-57.865-1.027-10.313-.515-20.62-.175-30.898-.816-18.416-1.15-36.868-1.146-55.287-2.044-19.898-.97-39.75-2.923-59.695-2.883-3.81-.014-7.62-.015-11.43-.002-6.597-.016-13.192-.01-19.788 0-4.946-.017-9.893-.01-14.838-.005-1.834-.003-3.667-.005-5.5 0-4.24-.006-8.482-.025-12.723.017-4.474.157-8.938-.15-13.406-.28-.867.187-1.747.23-2.632.205-1.478-.087-2.883-.4-4.097-1.307z"/><path fill="#CCC" d="M688.055 13.985l101.936.15c-1.51 1.567-3.46.918-5.212.92-257.46.028-514.92.028-772.38-.002-1.75 0-3.704.668-5.203-.927l88.948-.146c7.338-.495 14.704-.546 22.02-1.384 11.356.068 22.713-.016 34.07-.002 61.468.166 122.938-.064 184.395-.676 27.633-.274 55.303-1.233 82.905-.484 44.638 1.21 89.267.157 133.89.854 23.486.367 46.967.17 70.448.292 11.056-.11 22.11.106 33.167.014 10.36-.02 20.662 1.28 31.018 1.39zM5.128 93.02l.005-76.87c1.392 1.155.946 2.756.948 4.198.025 22.825.025 45.65 0 68.475 0 1.444.44 3.044-.952 4.196z"/><path fill="#FAFAFA" d="M657.067 13.983l-32.988.02c-7.24-1.194-14.62-.845-21.852-.907-12.638-.11-25.307-.22-37.914-.695-23.604-.887-47.223-1.625-70.826-2.04-10.606-.188-21.25-.423-31.875-.438-43.64-.06-87.28-.382-130.915.11-25.964.292-51.95.203-77.888 1.086-24.61.838-49.218 1.412-73.825 2.124-8.952.26-17.944-.413-26.87.766l-33.97-.018c.098-1.984 1.66-1.802 2.916-1.854 2.98-.125 5.99-.814 8.857-.825 10.75-.038 21.417-1.995 32.182-1.23 1.86-1.165 3.938-1.023 5.998-.998 6.33-.407 12.75.923 19-1h12c21.495-1.905 43.063-1.83 64.607-2.387.545-.015.95.18 1.393.387h5c2.322-1.18 4.834-.973 7.313-.998 13.272-.133 26.55.372 39.81-.49.98-.065 2.007.155 2.878-.51 36.423 1.36 72.862.882 109.296 1.032 8.81.037 17.53-1.725 26.36-1.044 14.407 1.11 28.82-.54 43.226.03 4.897.19 9.79-.654 14.642 1.68 2.707 1.305 6.2-.393 9.288-.486 7.108-.216 14.275-.974 21.374.59 4.147.915 8.302-.045 12.342-.86 6.934-1.4 12.848 2.957 19.473 3.057 2.666.828 5.332.828 8 0h14c5.905 2.028 12.006.542 18 1h8c3.764 3.155 8.023.37 12 1h3c4.29 1.966 8.834.588 13.242 1.006 2.05.19 4.552-.36 4.725 2.893z"/><path fill="#FBFBFB" d="M265.1 6.08c-2.713.855-5.48 1.154-8.324 1.01-14.91-.754-29.752 1.35-44.66 1.075-4.33-.08-8.68 2.287-13.017-.084 6.713-1.79 13.664-2.542 20.494-2.823 13.917-.574 27.874-.177 41.814-.17 1.312 0 2.69-.188 3.69.994zM162.1 10.08c-8.936 1.493-17.987 1.455-26.993 1.95-5.706.315-11.378.69-16.96 1.96l-22.005-.008c.265-.196.544-.58.79-.56 8.11.647 15.855-2.197 23.9-2.407 12.04-.313 24.018-2.027 36.086-1.91 1.757.017 3.692-.59 5.182.975zM320.1 4.082c-4.22 1.552-8.675 1.863-13.063 1.932-12.31.192-24.625.067-36.938.067 1.836-2.192 4.36-2.005 6.85-2.003 14.38.01 28.765.005 43.15.005zM657.067 13.983c-3.05-3.69-7.188-1.206-10.77-1.88-2.468-.465-5.475 1.078-7.2-2.022 8.626-.674 17.51-.503 25.658 1.43 7.84 1.86 15.74.127 23.3 2.477-10.33-.003-20.66-.003-30.988-.004zM187.1 8.08c-6.177 3.323-12.58 2.348-19 1 6.235-2.173 12.677-.438 19-1zM616.1 9.08c-6.095 1.362-12.173 2.43-18-1 5.987.548 12.1-1.174 18 1zM636.1 10.08c-4.14 1.324-8.444 4.654-12-.998 3.92 1.26 8.268-2.577 12 1zM584.1 8.08c-2.668 1.533-5.334 1.533-8 0h8zM744.1 96.172c5.333 0 10.665.002 15.997.004-.24 1.408-1.168 1.93-2.493 1.883-6.39-.224-12.406 1.807-18.594 2.862-8.892 1.52-17.927 2.887-26.915 2.98-13.558.138-26.805 3.19-40.345 3.303-6.586.055-13.19 1.042-19.735 1.978-5.742.82-11.52.167-17.245.394-8.98.355-17.7 2.74-26.67 2.506-2.462-1.488-5.3-1.467-8-2 .103-2.31 1.937-2.215 3.454-2.352 1.6-.143 3.18-.286 4.702-.83 10-1.78 20.2-1.647 30.233-1.788 7.044-.1 14.055-1.35 21.186-.704 5.203.47 10.4-1.58 15.695-2.13 7.56-.782 15.147-.436 22.702-1.515 9.222-1.317 18.685-.468 27.83-2.97 4.027-1.1 8.258-.69 12.413-.73 1.955-.022 4.023.463 5.786-.89z"/><path fill="#FAFAFA" d="M608.1 108.08c-2.25 2.335-5.75-.333-8 2-17.03 1.694-34.114 1.81-51.205 2.202-7.77.178-15.567.854-23.364.775-15.342-.154-30.71.536-45.97 1.37-20.314 1.112-40.49-.506-60.727-.377-21.646.137-43.293.05-64.94.02-8.967-.012-17.86 1.615-26.857 1.025-17.18-1.127-34.542.404-51.54-1.476-12.996-1.44-25.762.986-38.537-.6-10.28-1.277-20.57-.793-30.86-.94-1.753-1.247-3.785-1.096-5.735-.976-10.87.668-21.653-1.21-32.503-1.044-1.34.02-2.627-.198-3.763-.98h-4c-2.216-.277-4.43.5-6.65.003-3.66-1.06-7.48-.272-11.17-.997-5.056-.475-10.234 1.012-15.18-1.006h-7c-10.644-1.247-21.478-.46-32-3h-13c-4.396-2.048-9.34-.238-13.813-1.96-1.02-.394-2.23-.347-3.187-1.04h-10c-3.88-1.39-7.96-1.57-12-2-1-.334-2-.668-3-1l-.598-.233c-.473-.48-.774-1-.382-1.68 4.666-.005 9.33-.01 13.997-.017 9.184 1.58 18.518 1.327 27.767 2.333 20.136 2.19 40.388 3.077 60.6 4.406 12.663.83 25.324 1.165 37.976 1.872 16.103.9 32.222 1.277 48.308 2.13 11.99.638 24.002-.207 35.906.89 15.318 1.41 30.627.197 45.916.873 47.788 2.113 95.6.327 143.393 1.022 3.748.872 7.552.965 11.386.967 14.446.005 28.895-.146 43.34-.013 2.378.023 4.627-.594 6.886-1.03 5.796-1.118 11.524-.193 17.3-.126 23.083.27 46.105-2.184 69.204-1.998 3.082.024 6.243-.77 9.363-1.215 1.938-.273 3.67-.274 4.636 1.82z"/><path fill="#FCFCFC" d="M164.098 109.082c12.624-.49 25.176 1.74 37.807 1.004 1.75-.102 3.337.193 4.194 1.995-12.624.453-25.208-.54-37.808-.98-1.747-.063-3.336-.217-4.194-2.018z"/><path fill="#FBFBFB" d="M88.1 104.08c1.147-1.366 2.837-1.294 4.165-.928 8.727 2.406 17.806 1.598 26.616 3.12.44.077.815.53 1.22.81-2.667.79-5.333.792-8 0-6.327 0-12.655-.096-18.98.045-2.48.056-4.21-.603-5.02-3.046z"/><path fill="#FCFCFC" d="M127.1 107.082h16c.482.4 1.044.73 1.217 1.4l-.218.6c-4.12 0-8.24-.018-12.36.006-1.856.01-3.68.023-4.64-2.006z"/><path fill="#FBFBFB" d="M58.098 101.082c4.77.353 9.54.7 14.31 1.062 1.282.097 2.122.837 2.69 1.938-4.63-.034-9.264.227-13.835-.955-1.377-.356-2.52-.718-3.165-2.045zM36.1 99.08c4.24-.786 8.393-1.03 12 2-4.128.093-8.202-.13-12-2z"/><path fill="#FCFCFC" d="M154.1 109.08c2-.877 4-1.862 6 0-5.334 1.63-10.668 1.63-16 0 3.333-1.55 6.666-1.487 10 0z"/><path fill="#FBFBFB" d="M26.1 96.178l4.005-.002c.824.908 2.07 1.153 2.994 1.905-2.98 1.745-5.385 1.374-7-1.902z"/><path fill="#FCFCFC" d="M112.1 107.08h8c-2.668 1.533-5.334 1.533-8 0z"/><path fill="#F1F1F1" d="M446.098 111.08c-40.66 0-81.327.435-121.98-.185-20.122-.307-40.278-.083-60.36-1.067-11.815-.58-23.62-.03-35.385-.825-16.41-1.108-32.905-.643-49.236-2.19-9.94-.942-19.903-.882-29.8-1.353-13.915-.663-27.8-1.957-41.713-2.63-16.33-.79-32.696-2.11-48.923-4.553-4.212-.634-8.594-.168-12.584-2.126 4.336-.002 8.672-.006 13.008-.01 1.584.91 3.312.243 4.96.45.743 0 1.485-.016 2.21.184 1.996.535 4.032.22 6.05.308 1.82.02 3.64-.044 5.457.074 1.783.474 3.605.52 5.434.494 1.596.03 3.197-.006 4.773.316 2.033.827 4.173.675 6.298.675 1.918.037 3.843-.055 5.744.298 2.652 1.056 5.435.604 8.172.693 2.258.048 4.522-.09 6.767.278 2.99 1.15 6.114.6 9.187.72 2.57.055 5.15-.115 7.71.262 2.73 1.075 5.594.67 8.416.736 2.908.07 5.825-.153 8.722.273 3.696 1.282 7.524.53 11.292.72 5.05.1 10.103-.194 15.145.198 2.71.993 5.535.832 8.346.817 2.488.048 4.98-.06 7.468.18.555.054 1.094.18 1.62.356 4.086.977 8.237.255 12.354.458 1.73 0 3.457-.002 5.187-.008 4.482.104 8.97-.213 13.444.237 4.615 1.447 9.362.5 14.042.764 2.665.023 5.33-.015 7.997.055.903.028 1.802.096 2.673.36 8.38 1.276 16.813.27 25.214.582 2.105.006 4.21.01 6.316.003 2.723.01 5.444.007 8.168-.004 5.23.125 10.464-.247 15.686.254 6.065 1.537 12.24.41 18.354.742 7.32.014 14.638.01 21.957-.004 29.087.018 58.172.004 87.254.002 4.03.016 8.064.015 12.095.01 2.11.006 4.22.013 6.33.004 1.207-.006 2.415-.006 3.623-.007 8.523-.38 17.092.85 25.58-.737 5.556-.514 11.125-.14 16.685-.266 5.957-.27 11.954.645 17.877-.602 2.575-.52 5.165-.416 7.755-.15 2.372.886 4.75.964 7.135.016 2.54-.35 5.093-.202 7.64-.255 2.626.007 5.25.006 7.872-.004 4.686-.257 9.432.665 14.06-.733 3.872-.464 7.762-.173 11.642-.268 2.324.006 4.65.01 6.973.004 4.734-.143 9.486.384 14.208-.327.52-.21 1.058-.352 1.607-.45 2.207-.257 4.426-.168 6.642-.21 3.025-.107 6.1.39 9.043-.745 2.587-.374 5.19-.21 7.787-.267 1.79 0 3.578 0 5.37-.005 3.6.485 7.494-1.146 10.798 1.49-.457 2.407-2.43 1.873-3.97 1.938-18.874.8-37.728 1.925-56.634 2.194-12.574.18-25.158 1.38-37.75 1.785-10.415.335-20.845.42-31.253.7-18.52.502-37.113 1.19-55.663-.062-.295-.018-.6.254-.894.415z"/><path fill="#D5D5D5" d="M110.094 96.09c18.465-.687 36.808 1.764 55.24 2.252 16.91.447 33.837 1.19 50.75 1.907 27.91 1.184 55.837 1.165 83.74 2.01 55.447 1.68 110.892.636 166.332.585 19.436-.02 38.935-.066 58.352-1.012 10.476-.51 20.928-.402 31.385-.76 1.462-.05 3.04.34 4.208-.99 17.81.726 35.594-.59 53.364-1.216 21.213-.748 42.365-3.16 63.64-2.774-.23 2.682-2.397 2.18-4.04 2.363-2.736.304-5.54-.326-8.243.568-.547.196-1.11.315-1.687.378-10.693-.016-21.325 1.283-32.004 1.518-.54.214-1.1.354-1.67.443-6.822.565-13.69-.43-20.5.616-.547.205-1.11.334-1.687.407-7.527.602-15.11-.6-22.62.712-.586.188-1.183.297-1.796.345-18.815-.484-37.577 1.61-56.39 1.112-4.948.65-9.9 1.274-14.914.99-82.275.875-164.55 1.724-246.82-.003-1.926-.043-3.862.063-5.77-.316-2.228-.84-4.563-.76-6.87-.672-14.227.535-28.396-.86-42.593-1.22-8.022-1.735-16.168-.28-24.232-.913-.596-.037-1.18-.152-1.747-.326-6.37-1.232-12.81-.248-19.21-.582-1.19-.028-2.385-.04-3.548-.35-11.55-.795-23.087-1.76-34.67-1.687-.564-.015-1.13-.078-1.686-.17-4.15-1.577-8.543-.302-12.77-1.042-.527-.143-1-.393-1.422-.738-.416-.445-.456-.925-.12-1.437z"/><path fill="#ECECEC" d="M496.1 108.08c-5.667 0-11.334 0-17 .002-6.704 1.078-13.457.177-20.178.51-1.942.095-3.955-.51-5.823.488h-3c-2.17-1.025-4.477-.27-6.71-.508-3.944 0-7.885.002-11.83 0h-87.192c-7.388 0-14.776.002-22.165 0-6.03-.278-12.095.593-18.104-.49-5.334 0-10.667 0-16-.002-2.72-1.07-5.557-.246-8.33-.508-2.082 0-4.16.002-6.243 0-8.476-.313-16.972.637-25.428-.49h-2c-2.795-1.042-5.698-.27-8.544-.51-4.483-.274-9.006.583-13.457-.49-4.668 0-9.334 0-14-.002-1.847-1.04-3.853-.268-5.772-.508-4.072-.292-8.19.608-12.228-.49-2.716-1.07-5.548-.25-8.315-.51-2.558-.257-5.18.55-7.687-.488l-15.998-.003c-3.57-1.382-7.427.354-11-.998h-9c-2.537-1.373-5.46.34-8-1h-8c-2.888-1.352-6.11.313-9-1h-7c-2.537-1.373-5.46.34-8-1h-6c-1.84-1.296-4.156.264-6-1h-5c-1.49-1.226-3.505.19-5-1-2 0-4 0-6-.002-1.84-1.293-4.155.266-6-.998h-2c-.35-.21-.468-.417-.353-.626s.23-.314.35-.314c5-.01 10-.018 15-.026 11.033 1.218 22.145 1.033 33.206 1.903 24.144 1.9 48.347 2.898 72.537 3.95 13.425.585 26.857 1.186 40.302 1.362 1.217.656 2.54.79 3.882.737 17.646-.707 35.243.946 52.878 1.134 39.96.423 79.917.86 119.88.965 38.97.1 77.922-.942 116.882-1.303 21.247-.196 42.514-1.29 63.773-1.944 15.086-.464 30.196-1.106 45.256-2.038 17.854-1.105 35.753-1.682 53.567-3.63 7.55-.823 15.244-.314 22.84-1.14l11.973.02c-.05 2.12-1.744 2.143-3.138 2.27-1.8.163-3.575.352-5.3.916-16.252.89-32.4 3.375-48.716 3.222-1.974-.02-3.954-.09-5.843.663-3.795.54-7.663.078-11.446.84-2.142-.64-4.257-.406-6.362.228-4.46-.96-8.985-.67-13.492-.698-1.885.24-3.862-.535-5.677.507-2.667 0-5.334.002-8 .003-2.802.997-5.702.265-8.547.49-2.476.277-5.03-.586-7.454.508-4.747 1.11-9.563.194-14.334.492-2.547.275-5.172-.583-7.667.507l-12 .003c-4.445 1.072-8.96.215-13.432.49-2.85.236-5.764-.532-8.57.508h-8c-2 .772-4 .77-6 .002h-7.996c-4.2 1.063-8.474.197-12.7.502-1.77.126-3.613-.485-5.303.493z"/><path fill="#F7F7F7" d="M446.098 111.08c1.496-1.566 3.438-.965 5.198-.973 11.313-.05 22.628.097 33.938-.057 16.186-.22 32.37-.612 48.554-.982 19.98-.457 39.91-1.98 59.913-2.318 12.022-.203 24.21.27 36.197-1.714.766-.127 1.47-.627 2.203-.954 11.832-1.3 23.724-1.724 35.59-2.54 14.38-.987 28.787-1.754 43.084-3.712 5.762-.632 11.572-.802 17.313-1.686 5.338.01 10.676.017 16.015.026-.384 2.063-2.007 2.044-3.486 1.882-9.49-1.04-18.413 2.596-27.69 3.424-3.232.29-6.42-.11-9.708.313-10.344 1.328-20.966.778-31.203 2.555-8.144 1.413-16.33.892-24.413 2.308-5.137.9-10.415-.127-15.688.16-7.926.43-15.865 1.09-23.814 1.27-3.08-1.944-6.25-.13-9.17.274-4.154.578-8.265.815-12.394.687-13.468-.42-26.88 1.005-40.326 1.303-9.77.216-19.465 1.077-29.244-.145-3.032-.378-6.228.585-9.353.896-18.858 1.88-37.77.624-56.656.93-1.615.025-3.24-.616-4.86-.948z"/><path fill="#E1E1E1" d="M704.1 96.114c-4.147 2.146-8.788 1.204-13.133 1.694-11.847 1.338-23.824 1.475-35.735 2.3-21.86 1.518-43.743 2.39-65.637 3.23-6.784.26-13.594.502-20.393.735-13.956.48-27.954.518-41.864 1.297-12.657.71-25.273.255-37.897.712-57.947 2.098-115.918.895-173.874.768-18.61-.04-37.28-.068-55.87-1.012-10.31-.524-20.6-.43-30.893-.76-1.316-.042-2.7.183-3.71-.995 11.337-.834 22.675-.808 34.013-.006h4.992c.72.525 1.555.5 2.39.51 59.452.764 118.91 1.63 178.362.84 21.284-.283 42.57-.783 63.86-.848 1.144-.005 2.347.25 3.39-.5 4.715.325 9.36-.35 14.01-.98 9.58.698 19.15.983 28.728-.183 6.448-.786 12.94-.086 19.405-.354 3.285-.136 6.62.634 9.856-.485h-.003c6.037-1.08 12.128-.18 18.185-.506 1.94-.104 3.952.514 5.817-.494h-.003c5.368-1.1 10.8-.163 16.19-.504 1.94-.123 3.948.514 5.812-.496h-.003c2.74-1 5.58-.44 8.365-.454 8.578-.044 17.083-1.18 25.637-1.546h-.003c6.527-.684 13.11-.643 19.626-1.483 1.78-.23 3.646.445 5.364-.49 5.004.002 10.01.006 15.014.01z"/><path fill="#B4B4B4" d="M217.123 96.102l58.01.015c1.226.76 2.593.47 3.898.46 41.238-.33 82.47.658 123.708.56 30.26-.07 60.514-.922 90.773-.547 2.883.193 5.8-.418 8.658.377.254.698.08 1.266-.514 1.708-1.34.854-2.855.814-4.354.85-53.47 1.31-106.95 1.19-160.427.933-20.976-.1-41.95-.92-62.934-.923-6.494 0-12.972-.648-19.47-.522-10.832-.885-21.697-.734-32.55-.99-1.697-.042-4.16 1.08-4.797-1.92z"/><path fill="#AEAEAE" d="M494.098 97.08c-13 0-26.02-.48-38.993.096-35.122 1.56-70.27 1.366-105.37.632-23.634-.495-47.258-.346-70.882-.73-1.313-.022-2.702.213-3.72-.96l218.96.01c.355.21.474.42.357.634-.116.21-.233.317-.352.317z"/><path fill="#E0E0E0" d="M259.105 104.078l-34.014.006c-16.77.736-33.49-.82-50.24-1.152-18.676-.37-37.338-1.744-55.992-2.908-12.527-.782-25.03-1.947-37.54-2.994-.762-.064-1.483-.6-2.223-.915l20.005-.018c3.575 1.346 7.423-.36 10.998.984 4.59 1.413 9.408-.382 14 1 .334 0 .667 0 1 .002 9.554.36 19.064 1.505 28.64 1.54 2.45.01 4.965-.566 7.36.458 1 0 2 0 3 .002 4.86 1.104 9.794.194 14.682.52 1.774.117 3.618-.462 5.318.48 6.2 1.163 12.458.157 18.678.522 2.108.124 4.28-.513 6.323.476 15.606-.05 31.176 1.697 46.8 1.014 1.17-.052 2.347-.027 3.205.984z"/><path fill="#BFBFBF" d="M333.1 101.082h-12c-.323-.743-.093-1.22.688-1.432 45.873-.102 91.747-.103 137.62 0 .782.21 1.012.688.69 1.43l-9 .002c-1.218.79-2.586.477-3.89.478-36.74.017-73.48.017-110.22 0-1.303 0-2.672.31-3.89-.478z"/><path fill="#C4C4C4" d="M333.1 101.082h118c-1.494 1.563-3.434.97-5.19.972-35.874.032-71.747.032-107.62 0-1.76 0-3.698.59-5.19-.972z"/><path fill="#C2C2C2" d="M232.1 99.082c-17.908.74-35.758-1.466-53.665-1.07-3.436.077-6.816-1.37-10.336-.932-.353-.222-.47-.442-.353-.663s.234-.33.353-.33c5.338 0 10.675.002 16.012.003.87.662 1.892.525 2.865.488 14.87-.57 29.688 1.146 44.546 1.083.715.263.908.736.576 1.422z"/><path fill="#BBB" d="M232.097 98.083c-14.928-.335-29.854-.672-44.782-1.002-1.17-.025-2.35.03-3.203-.99l33.012.012c1.486 1.542 3.407.94 5.15.95 8.895.06 17.79 0 26.684.057 1.745.01 3.666-.58 5.146.97-1.563 1.508-3.538.81-5.348 1-5.567-.12-11.16.223-16.66-.997z"/><path fill="#BFBFBF" d="M232.097 98.083h17c5.74 1.09 11.534.373 17.3.47 8.288.14 16.58-.02 24.87.095 1.353.02 3.5-1.17 3.912 1.542-9.697.567-19.392.775-29.082-.106-10.396-.02-20.792-.02-31.187-.104-.94-.008-1.874-.584-2.812-.896v-1z"/><path fill="#B5B5B5" d="M502.1 98.08v-.997c6.528-1.09 13.11-.173 19.657-.51 2.438-.127 4.93.53 7.313-.46l36.02-.008c.292.704.1 1.23-.577 1.58-10.564 1.794-21.254.463-31.877 1.274-8.107.618-16.283.906-24.44.564-2.113-.087-4.396.425-6.097-1.444z"/><path fill="#C7C7C7" d="M588.1 98.08c-6.377 2.228-12.966.378-19.42 1.023-2.863.287-5.913-1-8.58.98l-32.004-.006c-.335-.694-.14-1.167.59-1.42 13.15-.752 26.34-.47 39.476-1.566 5.09-.02 10.182-.037 15.27.012 1.6.016 3.327-.362 4.667.98z"/><path fill="#C4C4C4" d="M266.098 100.083l29-.005c2.79-2.065 5.8-.495 8.687-.44 5.77.11 11.566-.616 17.31.446.003.332.004.665.005.997-16.604 0-33.208.017-49.812-.026-1.76-.005-3.696.59-5.19-.97z"/><path fill="#BFBFBF" d="M588.1 98.08h-20c-.345-.642-.185-1.11.48-1.41 6.826-.466 13.695.57 20.504-.576l19.01-.006c.348.627.197 1.094-.45 1.4-5.838.506-11.73-.612-17.547.592H588.1zM528.1 99.082c0 .332 0 .664-.004.996l-2.997.002c-8.263 1.088-16.564.21-24.842.492-4.44-.31-8.932.638-13.334-.56.07-.737.467-1.355 1.178-1.347 13.333.165 26.676-.687 40 .417z"/><path fill="#C4C4C4" d="M487.1 100.078l13 .005c.352.223.468.443.35.664s-.233.33-.352.33l-40 .004.005-.996c8.998-.333 17.997-1.597 26.996-.006z"/><path fill="#B1B1B1" d="M529.07 96.112c-3.73 1.996-7.742.735-11.614.91-5.11.232-10.237.06-15.357.06-2.668 0-5.335 0-8.002-.003 0-.318 0-.637-.004-.954l34.976-.014z"/><path fill="#EEE" d="M728.087 96.145c-5.475 2.29-11.252 1.926-16.986 1.938-1 .703-2.002.672-3.003-.003 2.252-2.313 5.706.294 7.977-1.945l12.013.01z"/><path fill="#E0E0E0" d="M689.087 96.104c-8.232 1.902-16.603 2.052-24.99 1.975 2.282-1.884 4.982-.648 7.472-.993 1.858-.258 3.917.614 5.535-.994 3.994.004 7.988.008 11.982.01z"/><path fill="#C7C7C7" d="M500.098 101.078c0-.33 0-.663.002-.995l25-.003c-4.06 2.133-8.405.68-12.607.943-4.117.26-8.263.056-12.395.055z"/><path fill="#BABABA" d="M589.084 96.094c-5.063 2.178-10.37.486-15.544.96-1.8.167-3.625.028-5.44.03-1 .713-2.003.665-3.003-.006 0-.324 0-.648-.005-.973l23.992-.01z"/><path fill="#C7C7C7" d="M590.097 98.08c5.898-2.17 12.012-.45 18-1.002 1.67-.762 3.337-.753 5.004.005-4.735 2.125-9.723.568-14.58.958-2.79.225-5.615.04-8.423.04z"/><path fill="#C4C4C4" d="M613.1 97.083l-5.003-.005c0-.33 0-.66-.003-.99 4.667 0 9.335-.003 14.003-.004.353.22.47.44.354.663-.116.22-.234.33-.353.33l-8.996.006z"/><path fill="#DBDBDB" d="M110.1 97.08c-3.653-.488-7.488 1.077-11-.983l10.994-.006c.003.33.005.66.005.99z"/><path fill="#C4C4C4" d="M168.1 96.086v.994h-9.68l-.015-.994h9.695z"/><path fill="#C7C7C7" d="M622.097 97.078v-.994h8.687c.006.33.012.663.02.994h-8.707z"/><path fill="#EEE" d="M64.095 96.142l.004.94c-1.68-.203-3.547.577-4.978-.942 1.658 0 3.316 0 4.973.002z"/><path fill="#FBFBFB" d="M33.1 98.08c-1.405.003-2.814.012-2.995-1.905l2.014-.006c.326.637.652 1.273.98 1.91z"/><path fill="#F2F2F2" d="M152.116 14.008c.746-.808 1.725-.974 2.742-.913 11.65.688 23.23-.876 34.855-1.09 18.082-.336 36.168-1.19 54.213-2.176 15.455-.845 30.87-.265 46.293-.773 47.586-1.568 95.186-.804 142.78-.97 10.66-.038 21.333-.354 31.976.067 22.53.893 45.08.367 67.592 1.113 16.24.538 32.47 1.532 48.73 1.945 13.346.338 26.664 1.784 40.038 1.872 1.02.007 1.996.112 2.742.92-62.79.004-125.587.645-188.363-.268-29.284-.426-58.586-1.078-87.836-.437-65.26 1.43-130.512.28-195.764.708z"/><path fill="#FBFBFB" d="M154.1 109.08h-10c-.334-.666-.668-1.332-1-2 2.577.003 5.155.012 7.733.002 1.51-.006 2.978.023 3.267 2z"/><path fill="#EEE" d="M708.097 98.08c1 0 2.003 0 3.004.002-3.833 1.81-8.11 1.65-12.074 1.82-16.716.712-33.314 2.98-50.062 3.395-5.587.14-11.23.713-16.863.785-3.666 0-7.333 0-11-.002-.354-.223-.47-.444-.353-.666.117-.22.235-.33.354-.33l15-.004c1.666-.758 3.332-.76 5 0 3.91-1.416 7.978-.93 12-1 1.494-1.19 3.51.224 5-.998 16.748.383 33.287-2.723 49.997-3.003z"/><path fill="#EDEDED" d="M344.098 108.083H432.1c.352.222.468.443.35.665-.115.222-.232.332-.35.332h-88c-.353-.22-.47-.442-.354-.665.116-.222.233-.332.352-.332z"/><path fill="#EEE" d="M453.1 109.08c3.723-2.05 7.742-.75 11.616-.942 4.783-.235 9.588-.056 14.384-.056-3.724 2.05-7.744.75-11.617.942-4.785.236-9.588.056-14.384.056zM248.098 107.082h26c.353.223.47.444.353.666-.115.222-.232.332-.35.332-7.11 0-14.223.024-21.333-.02-1.6-.007-3.352.472-4.67-.978zM344.098 108.083v.997h-22c-.35-.222-.468-.443-.35-.665.115-.22.232-.332.35-.332h22z"/><path fill="#EEE" d="M322.1 108.083v.997c-5.99-.545-12.104 1.173-18.002-.998h18z"/><path fill="#EDEDED" d="M496.1 108.08c5.898-2.17 12.013-.454 18-.997-5.898 2.167-12.012.454-18 .997z"/><path fill="#EEE" d="M577.1 105.082h15c-4.877 2.196-10.017.43-15 .997-.353-.223-.47-.443-.353-.666.116-.22.233-.332.352-.332zM544.1 106.083h14c-4.542 2.096-9.346.503-14 .997-.354-.223-.47-.444-.353-.666.117-.22.235-.33.354-.33zM224.098 106.083h14c.353.22.47.44.354.664-.116.222-.233.333-.352.333-4.657-.494-9.46 1.1-14.002-.997zM192.1 105.082h12.998c.353.22.47.442.354.664-.117.222-.233.333-.352.333-4.318-.55-8.81 1.17-13-.998zM432.1 109.08v-.997h12c.35.222.468.443.35.665-.115.222-.232.332-.35.332h-12zM149.098 103.082c3.652.498 7.494-1.095 11 1-3.65-.5-7.493 1.09-11-1zM115.098 101.082c2.99.412 6.18-.96 9 1-2.99-.414-6.18.955-9-1zM599.1 104.083h9c-2.82 1.954-6.01.586-9 .998-.354-.222-.47-.443-.353-.666.117-.22.235-.33.354-.33z"/><path fill="#EDEDED" d="M184.098 104.083c2.657.408 5.536-.958 8 .998h-8c-.35-.22-.468-.442-.352-.664s.233-.333.352-.333z"/><path fill="#EEE" d="M132.098 102.083c2.657.408 5.536-.957 8 .998-2.657-.41-5.535.955-8-.997z"/><path fill="#EDEDED" d="M238.1 107.08c0-.332 0-.665-.002-.997 2.657.408 5.536-.957 8 .998H238.1zM544.1 106.083v.997h-8c2.463-1.955 5.343-.59 8-.997z"/><path fill="#EEE" d="M100.098 100.082c2.658.41 5.537-.957 8 1-2.657-.412-5.535.953-8-1z"/><path fill="#EDEDED" d="M280.098 107.082c2.657.41 5.536-.956 8 .998h-8c-.35-.222-.468-.442-.352-.665.116-.222.233-.333.352-.333z"/><path fill="#EEE" d="M184.098 104.083v.997c-2.656-.408-5.535.954-8-.996h8z"/><path fill="#EDEDED" d="M577.1 105.082v.997h-7c2.113-1.867 4.67-.642 7-.998zM599.1 104.083v.998h-7c2.114-1.868 4.67-.642 7-.997z"/><path fill="#EEE" d="M88.098 99.082c2.008.29 4.237-.755 6 1-2.007-.29-4.236.75-6-1zM522.098 107.083h6c-2 1.49-4 1.488-6 0zM66.098 97.082c2.008.29 4.237-.754 6 .998-2.007-.29-4.236.753-6-.998zM444.1 109.08v-.997c2.007.288 4.235-.755 6 .997h-6zM280.098 107.082v.998h-6v-.997h6zM78.097 98.083c1.692.206 3.587-.603 5 .998-1.69-.207-3.585.6-5-.997z"/><path fill="#EDEDED" d="M621.1 103.083v.997h-5c1.414-1.6 3.308-.79 5-.997zM205.1 106.08c0-.333 0-.666-.002-.998 1.692.207 3.587-.602 5 .998H205.1z"/><path fill="#E0E0E0" d="M512.1 104.08c-1.498 1.573-3.444.97-5.207.976-12.948.048-25.915-.422-38.842.107-50.783 2.076-101.582.716-152.37.67-16.1-.015-32.247-.59-48.376-.752-1.174-.01-2.353.022-3.206-1 82.667 1.76 165.334.833 248 0zM584.1 102.078c-.732.327-1.457.925-2.195.94-17.53.393-35.065.723-52.6 1.06-1.165.02-2.34.03-3.196-.978 19.344.51 38.64-1.727 57.99-1.022z"/><path fill="#DBDBDB" d="M161.1 100.08c-11.133.735-22.184-1.232-33.3-1.012-1.023.02-1.99-.144-2.7-.986 11.13-.705 22.173 1.504 33.298 1.015 1.022-.045 1.99.14 2.702.983z"/><path fill="#E0E0E0" d="M664.1 98.078c-.71.847-1.675 1.01-2.7.992-10.45-.186-20.834 1.735-31.303 1.01.714-.84 1.68-.96 2.702-.99 10.432-.33 20.865-.673 31.3-1.012z"/><path fill="#DBDBDB" d="M209.1 102.08c-6.778 0-13.556.024-20.333-.02-1.6-.01-3.35.47-4.668-.98 6.776.002 13.554-.022 20.33.022 1.6.01 3.35-.47 4.67.978z"/><path fill="#E0E0E0" d="M608.1 101.078c-4.403 2.068-9.064.648-13.594.956-3.455.235-6.938.046-10.41.045 4.405-2.052 9.064-.646 13.596-.953 3.454-.233 6.936-.048 10.407-.05zM630.1 100.078c-5.067 2.208-10.384.515-15.565.972-2.13.188-4.29.03-6.438.03 5.067-2.19 10.383-.515 15.564-.97 2.132-.188 4.292-.032 6.44-.032z"/><path fill="#DBDBDB" d="M184.1 101.08c-6.654-.607-13.43 1.256-20.002-.998 6.653.607 13.43-1.255 20 1zM124.1 98.08c-4.656-.494-9.46 1.094-14-1 4.654.493 9.458-1.095 14 1z"/><path fill="#EDEDED" d="M641.1 103.08h-5c1.666-1.452 3.332-1.453 5 0zM658.1 101.082c-1.415 1.6-3.31.79-5 .998 1.413-1.6 3.307-.79 5-.998z"/><path fill="#BCBCBC" d="M565.097 97.078l3.004.005v.997c-13.342-.003-26.64 1.7-40 1.002-11.938 0-23.88-.022-35.82.025-1.755.007-3.69-.59-5.18.97l-26.997.007H321.095l-25.996-.006c-1.484-1.556-3.412-.964-5.16-.972-11.895-.048-23.788-.003-35.682-.052-1.75-.007-3.677.584-5.16-.972l5.006-.004c82.665.896 165.33 2.045 247.995 0 21.015.748 41.983-1.538 62.997-1z"/></g></svg>