<?xml version="1.0" encoding="utf-8"?>
<!-- Generator: Adobe Illustrator 16.0.0, SVG Export Plug-In . SVG Version: 6.00 Build 0)  -->
<!DOCTYPE svg PUBLIC "-//W3C//DTD SVG 1.1//EN" "http://www.w3.org/Graphics/SVG/1.1/DTD/svg11.dtd">
<svg version="1.1" id="Layer_1" xmlns="http://www.w3.org/2000/svg" xmlns:xlink="http://www.w3.org/1999/xlink" x="0px" y="0px"
	 width="371.396px" height="431.702px" viewBox="0 0 371.396 431.702" enable-background="new 0 0 371.396 431.702"
	 xml:space="preserve">
<g>
	<path fill-rule="evenodd" clip-rule="evenodd" fill="#F7F7F7" d="M340.854,412.919c-4.057,0-8.111,0.002-12.166,0.002
		c-0.98,0.715-1.961,0.873-2.941,0c0.428-4.203,3.953-3.822,6.66-4.215c3.115-0.451,6.328-0.297,8.746-2.813
		c0.604-0.621,1.184-1.258,1.691-1.967c1.484-3.332,1.672-6.836,1.67-10.414c-0.029-31.93,0.207-63.861-0.111-95.789
		c-0.164-16.553,0.953-33.049,1.334-49.574c0.266-11.412,1.322-22.848,2.033-34.27c1.563-10.136,2.514-20.356,3.871-30.522
		c2.406-18.008,4.332-36.074,6.684-54.089c1.959-15.012,3.574-30.069,5.471-45.091c1.242-9.849,2.324-19.72,3.648-29.555
		c1.258-9.362-2.436-14.456-11.902-15.575c-2.734-0.323-5.947,0.059-7.016-3.604c0.92-1.887,2.488-1.058,3.873-0.888
		c3.828,0.467,7.605,1.19,11.357,2.113c4.34,1.07,5.93,4.555,7.521,8.104c0.725,14.501-2.102,28.673-3.898,42.949
		c-1.904,15.129-3.4,30.309-5.266,45.443c-1.824,14.791-3.963,29.544-5.826,44.331c-1.529,12.138-2.951,24.29-4.26,36.453
		c-6.506,60.418-1.531,121.036-2.93,181.543c-0.08,3.42-2.088,6.885-0.131,10.328C347.083,409.125,344.565,411.703,340.854,412.919z
		"/>
	<path fill-rule="evenodd" clip-rule="evenodd" fill="#EFEFEF" d="M348.97,34.629c1.039,3.13,3.824,2.822,6.223,3.012
		c10.859,0.864,15.301,7.061,13.49,17.738c-1.592,9.396-2.328,18.937-3.492,28.407c-1.59,12.954-3.273,25.896-4.826,38.852
		c-1.494,12.468-2.797,24.959-4.322,37.423c-1.482,12.124-3.104,24.231-4.738,36.335c-0.754,5.58-0.566,11.292-2.334,16.731
		c-2.59-3.595-1.02-7.702-1.379-11.565c-0.184-1.97-0.07-3.975,0.053-5.958c0.016-0.609,0.105-1.212,0.24-1.806
		c2.469-16.168,4.014-32.455,6.021-48.679c0.904-2.551,0.773-5.25,1.061-7.889c0.064-0.514,0.186-1.019,0.33-1.515
		c0.857-2.464,0.322-5.085,0.818-7.597c0.076-0.544,0.211-1.068,0.377-1.588c2.443-21.393,4.924-42.776,7.689-64.123
		c0.521-4.037,0.6-8.057,0.529-12.096c-0.096-5.376-1.465-6.84-6.771-8.453c-2.785-0.847-5.723-0.348-8.443-1.351
		c-3.762-2.875-5.307-7.1-6.75-11.342c-0.695-2.043-1.063-4.202-2.852-5.681c-2.592-1.518-5.428-1.635-8.32-1.633
		c-18.865,0.011-37.736-0.282-56.594,0.089c-18.695,0.367-37.324-1.178-56.002-1.261c-5.668-0.025-11.369-0.949-17.092-0.931
		c-1.643,0.006-3.463-0.007-4.211-2.031c2.707-1.546,5.498-1.025,8.295-0.335c41.566,0.004,83.133-0.019,124.701,0.044
		c5.787,0.009,11.297,0.778,15.543,5.685c2.789,3.225,0.898,7.271,2.758,10.5c0.301,0.226,0.402,0.452,0.301,0.677
		C349.173,34.516,349.071,34.629,348.97,34.629z"/>
	<path fill-rule="evenodd" clip-rule="evenodd" fill="#F8F8F8" d="M0.09,385.537c-1.087-14.01,2.202-27.646,3.388-41.465
		c0.823-9.59,2.442-19.068,3.262-28.664c0.56-6.557,2.103-13.105,2.593-19.754c0.744-10.088,2.309-20.1,3.495-30.129
		c1.128-9.539,2.95-19.047,3.761-28.639c0.81-9.586,2.416-19.074,3.403-28.635c0.412-3.996-0.595-8.721,2.402-12.372
		c2.524,3.401,1.057,7.323,1.394,11.002c0.181,1.961,0.047,3.953,0.046,5.929c-0.113,3.714,0.192,7.444-0.309,11.149
		c-1.629,9.29-2.632,18.67-3.668,28.032c-1.687,15.234-3.708,30.426-5.538,45.639c-1.829,15.215-3.551,30.445-5.653,45.627
		c-1.432,10.346-2.239,20.77-3.839,31.096c-0.339,2.189-0.317,4.379,0.001,6.563c0.798,5.488,2.72,7.504,8.091,8.943
		c3.344,0.898,7.157,0.369,9.909,3.143c0.371,0.852,0.371,1.697-0.061,2.527C14.621,397.929,2.87,392.753,0.09,385.537z"/>
	<path fill-rule="evenodd" clip-rule="evenodd" fill="#EFEFEF" d="M22.398,395.679c0.001-0.676,0.002-1.354,0.003-2.029
		c3.409-0.076,3.947,3.016,5.515,4.984c2.572,7.662,4.024,8.693,12.481,8.715c24.108,0.064,48.216-0.125,72.323,0.1
		c18.673,0.174,37.299,1.65,55.96,2.219c4.667,0.143,9.364,0.793,14.075,0.896c1.641,0.035,3.477,0.018,4.127,2.125
		c-1.756,2.201-4.114,1.379-6.331,1.27c-5.061-0.172-10.149,0.021-15.151-1.033c-41.568-0.004-83.135,0.02-124.702-0.045
		c-5.786-0.01-11.298-0.777-15.543-5.686c-2.79-3.225-0.899-7.27-2.757-10.5c-0.353-0.225-0.47-0.451-0.353-0.676
		C22.163,395.792,22.279,395.679,22.398,395.679z"/>
	<path fill-rule="evenodd" clip-rule="evenodd" fill="#F8F8F8" d="M205.97,17.383c-2.705,0.004-5.41,0.008-8.115,0.011
		c-6.342,2.725-12.941,1.575-19.366,0.849c-15.716-1.776-31.418-3.691-47.121-5.606c-15.039-1.833-30.072-3.714-45.126-5.407
		c-8.69-0.977-17.312-2.727-26.108-2.619c-6.066,0.074-8.899,2.153-10.75,7.953c-0.668,2.095-0.983,4.324-3.221,5.468
		c-1.274,0.413-2.463,0.356-3.475-0.642c2.527-4.716,1.992-10.621,6.022-14.828c1.527-1.595,2.863-2.386,5.102-2.478
		C65.625-0.4,77.213,1.295,88.897,2.697c9.681,1.16,19.384,2.443,29.122,3.33c9.584,0.873,19.164,2.468,28.762,3.607
		c9.909,1.177,19.879,1.917,29.739,3.403c9.239,1.391,18.492,2.491,27.787,3.352C204.888,16.442,205.417,17.039,205.97,17.383z"/>
	<path fill-rule="evenodd" clip-rule="evenodd" fill="#F0F0F0" d="M42.688,17.391c1.014-0.001,2.027-0.001,3.041-0.001
		c-0.509,4.208-4.06,3.776-6.801,4.219c-2.952,0.477-6.07,0.167-8.365,2.641c-0.882,1.143-1.054,2.599-1.71,3.845
		c-1.258,2.548-0.95,5.285-0.952,7.967c-0.019,29.849-0.219,59.701,0.073,89.548c0.155,15.85-1.055,31.639-1.35,47.466
		c-0.221,11.899-1.087,23.837-1.858,35.746c-0.109,1.691,0.343,3.932-2.36,4.308c-0.003-5.75-0.006-11.5-0.01-17.249
		c0.004-8.786,0.007-17.573,0.011-26.359c0.985-1.742,0.492-3.642,0.494-5.459c0.032-43.568,0.022-87.136,0.034-130.705
		c0-2.187-0.065-4.364,0.342-6.556c1.031-5.547,2.973-7.395,8.407-8.551c3.663-0.779,7.423,0.447,11.003-0.862L42.688,17.391z"/>
	<path fill-rule="evenodd" clip-rule="evenodd" fill="#F8F8F8" d="M165.4,412.925c5.071,0,10.142,0.002,15.212,0.002
		c9.361,0.631,18.712,1.305,28.019,2.6c12.984,1.807,26.021,3.227,39.037,4.771c12.52,1.486,25.021,3.141,37.57,4.387
		c2.031,0.201,4.029,0.375,5.875,1.322c0.547,0.293,0.971,0.709,1.279,1.246c-0.072,0.293-0.146,0.586-0.221,0.879
		c-11.156,0.443-22-2.398-33.047-3.182c-13.145-0.932-26.084-3.596-39.27-4.568c-6.707-0.496-13.537-1.939-20.338-2.607
		c-10.023-0.982-19.877-3.518-30.05-3.197C168.092,414.621,166.453,414.218,165.4,412.925z"/>
	<path fill-rule="evenodd" clip-rule="evenodd" fill="#FBFBFB" d="M42.685,17.388c-1.492,1.667-3.474,0.955-5.247,0.984
		c-9.852,0.164-14.014,4.342-14.017,14.336c-0.015,43.684,0.003,87.369-0.042,131.054c-0.002,1.93,0.763,4.083-0.974,5.758
		c-0.001-48.074-0.004-96.146-0.003-144.22c0-7.495,0.432-7.907,8.137-7.913C34.588,17.385,38.636,17.388,42.685,17.388z"/>
	<path fill-rule="evenodd" clip-rule="evenodd" fill="#FAFAFA" d="M348.97,34.629c0.002-0.339,0.002-0.677,0.002-1.016
		c7.131,0.118,14.109,1.147,20.559,4.306c2.891,1.417,1.422,4.488,1.748,6.853c-4.672-6.902-11.361-9.486-19.457-9.215
		C350.882,35.589,349.921,34.955,348.97,34.629z"/>
	<path fill-rule="evenodd" clip-rule="evenodd" fill="#F8F8F8" d="M325.64,412.919c1.016,0,2.033,0.002,3.049,0.002
		c-1.15,3.627-2.057,7.352-3.512,10.85c-1.744,4.195-4.48,7.266-9.781,6.438c-1.949-0.303-3.984-0.049-5.98-0.049
		c-0.352-0.473-0.322-0.922,0.08-1.348c1.131-0.85,2.49-0.801,3.801-0.99c6.236-0.9,8.904-3.443,10.285-9.674
		c0.357-1.617,0.619-3.273,1.492-4.734C325.259,413.248,325.448,413.083,325.64,412.919z"/>
	<path fill-rule="evenodd" clip-rule="evenodd" fill="#FAFAFA" d="M22.398,395.679c0,0.34,0,0.678,0,1.016
		c-7.131-0.117-14.11-1.146-20.559-4.305c-2.892-1.418-1.422-4.488-1.75-6.854C4.896,394.703,13.829,394.791,22.398,395.679z"/>
	<path fill-rule="evenodd" clip-rule="evenodd" fill="#FBFBFB" d="M340.854,412.919c2.703-2.367,5.408-4.732,8.113-7.1
		C348.837,412.476,348.356,412.896,340.854,412.919z"/>
	<path fill-rule="evenodd" clip-rule="evenodd" fill="#F8F8F8" d="M309.415,429.146c0,0.338,0,0.676,0,1.014
		c-5.752-0.633-11.844,1.631-17.242-2.027l0,0c1.633-1.502,3.658-1.344,5.646-1.346c1.102,0.016,2.195,0.125,3.27,0.383
		c2.018,0.773,4.172,0.555,6.262,0.828C308.163,428.156,308.888,428.478,309.415,429.146z"/>
	<path fill-rule="evenodd" clip-rule="evenodd" fill="#E1E1E1" d="M28.481,26.507c0.034-1.117-0.176-2.315,1.019-3.044
		c1.117-0.799,2.431-1.352,3.718-1.459c6.038-0.502,11.763-1.785,16.601-5.732c1.215-0.075,2.345,0.15,3.327,0.92
		c0.63,0.69,1.035,1.504,1.341,2.374c0.93,1.692,2.576,1.361,4.039,1.362c36.889,0.035,73.776,0.006,110.665,0.034
		c0.506,0.001,1.004-0.098,1.503-0.181c1.907-0.293,3.766,0.338,5.661,0.28c13.535,1.995,27.193,0.337,40.757,1.401
		c6.375-0.194,12.732,0.19,19.09,0.52c7.842,0.002,15.686-0.005,23.531-0.013c-7.619-0.021-15.24-0.017-22.861-0.019
		c-1.84-0.053-3.686,0.126-5.521-0.14c-9.752-0.739-19.555-0.002-29.301-0.958c-2.801-0.26-5.777,0.634-8.326-1.278
		c-0.26-0.7-0.076-1.252,0.549-1.66c3.006-0.891,6.045-0.085,9.01,0.095c42.258,2.577,84.557,1.852,126.846,1.995
		c4.012,0.014,8.107,0.313,11.74,2.461c2.369,5.408,4.738,10.815,7.105,16.224c0.377,0.337,0.811,0.492,1.322,0.534
		c0.939,0.076,2.371-0.373,2.641,0.692c0.41,1.629-1.186,2.058-2.361,2.598c-0.998,0.277-2,0.292-3.002,0.03
		c-0.469-0.157-0.887-0.414-1.26-0.739c-0.99-1.17-1.291-2.703-2.145-4.115c-0.32,2.331,0.859,4.296,1.088,6.429
		c0.334,38.26,0.018,76.506,0.178,114.75c0.057,13.306-0.289,26.613,0.078,39.913c0.326,1.841-0.023,3.665-0.158,5.494
		c0.168,3.314-0.951,6.492-1.021,9.785c-0.057,11.498-0.014,22.991-0.008,34.485c-0.035,7.385-0.014,14.768-0.006,22.15
		c0.172,6.008-0.516,12.043,0.518,18.029c0.16,35.439,0.039,70.873,0.055,106.311c0.002,3.389-0.832,6.637-1.998,9.803
		c-0.336,0.336-0.672,0.672-1.008,1.008c-2.607,1.207-5.416,1.934-8.221,1.912c-4.328-0.033-7.777,1.479-10.633,4.619
		c-0.508,0.271-1.045,0.443-1.611,0.533c-1.213,0.111-2.336-0.088-3.285-0.918c-0.609-0.693-0.938-1.541-1.316-2.363
		c-1.018-1.604-2.66-1.248-4.127-1.248c-36.666-0.049-73.33,0.021-109.996-0.059c-0.678,0-1.348,0.092-2.01,0.246
		c-1.9,0.27-3.762-0.27-5.652-0.279c-13.563-1.377-27.182-1.172-40.785-1.443c-6.389-0.326-12.776-0.713-19.178-0.52
		c-7.943-0.008-15.888,0.016-23.833,0.004c7.867,0.043,15.737,0.02,23.605,0.027c10.102-0.178,20.181,0.74,30.28,0.588
		c8.332,0.52,16.668,0.992,24.997,1.563c6.801,0.465,13.662,0.361,20.359,1.949c0.555,0.475,0.643,1.025,0.27,1.652
		c-4.477,2.326-9.264,0.828-13.906,1.143c-3.314-0.922-6.953,0.604-10.132-1.34c-0.74-0.33-1.467-0.912-2.221-0.949
		c-8.214-0.408-16.446-0.525-24.646-1.107c-40.504-2.879-81.068-1.762-121.613-2.023c-7.658-0.049-9.243-1.715-11.775-11.123
		c-1.154-4.396-5.405-5.645-8.352-8.221c0.232-1.91,1.872-2.096,3.223-2.641c0.988-0.201,1.957-0.24,2.812,0.422
		c1.626,0.896,2.167,2.658,3.115,4.055c0.284-3.033-3.466-3.225-3.994-5.74c-0.321-1.162-0.416-2.338-0.415-3.518
		c0.042-42.105-0.336-84.213,0.281-126.299c0.051-0.732,0.46-1.631-0.059-2.166c-0.205-0.209-0.111,1.287-1.027,1.342
		c-1.516-0.436-1.643-1.713-1.825-2.963c-0.049-1.014,0.082-2,0.506-2.928c0.234-0.412,0.561-0.746,0.955-1.004
		c2.688-2.057,1.457-5.295,2.354-7.9c0.086-5.086,1.39-10.004,1.95-15.022c-0.095-3.363,0.984-6.595,1.077-9.937
		c0.064-1.71,0.044-3.419,0.036-5.13c-0.014-1.179-0.016-2.356-0.019-3.537c0.013-4.265,0.003-8.529-0.018-12.793
		c0.023-4.693,0.013-9.385-0.004-14.078c0.027-5.063,0.016-10.126-0.001-15.189c-0.519-7.955,1.029-15.912-0.04-23.868
		c-0.071-35.065-0.005-70.129-0.04-105.193C26.967,32.339,27.389,29.372,28.481,26.507z"/>
	<path fill-rule="evenodd" clip-rule="evenodd" fill="#E4E4E4" d="M342.894,405.837c2.209-38.867,0.434-77.771,1.002-116.652
		c-1.051-5.707-0.219-11.467-0.49-17.193c0.068-14.77,0.584-29.537,1.279-44.282c0.449-9.517,1.287-19.038,1.84-28.566
		c0.098-1.703-0.186-3.895,2.441-4.275c0.002,6.086,0.002,12.173,0.004,18.259c0.035,17.846-1.568,35.632-2.275,53.446
		c-1.471,36.959-0.096,73.904-0.811,110.844c-0.16,8.23,1.016,16.514-0.838,24.703C344.696,403.66,344.515,405.117,342.894,405.837z
		"/>
	<path fill-rule="evenodd" clip-rule="evenodd" fill="#E4E4E4" d="M322.597,412.916c3.723-6.553,10.689-4.441,16.258-6.037
		c0.938-0.27,2.018-0.035,3.031-0.033c-2.098,2.928-5.252,2.896-8.375,3.047c-2.938,0.143-5.951,0.191-7.871,3.027l-0.004-0.008
		c-0.506,0.549-1.133,0.779-1.873,0.715C323.3,413.511,322.911,413.273,322.597,412.916z"/>
	<path fill-rule="evenodd" clip-rule="evenodd" fill="#E5E5E5" d="M344.886,200.944c-1.719-1.686-0.951-3.838-0.953-5.77
		c-0.043-50.805-0.033-101.61-0.033-152.414c0.979-0.956,1.982-0.717,2.994-0.065l0.086,0.105c1.869,2.119,1.578,4.736,1.576,7.238
		c-0.041,35.8,0.174,71.599-0.098,107.399c-0.041,5.374-1.498,10.69-0.619,16.077c0.074,0.801,0.42,1.572,0.406,1.306
		c-0.092-0.569-0.789-2.138-0.789-3.837c0.891-15.76,3.398-31.331,5.135-46.985c0.184-1.657,0.174-3.399,1.822-4.46
		c3.926,0.029,2.006,3.414,2.957,5.151c0.193,1.107,0.475,2.223-0.287,3.247v-0.001c-1.402,2.572,0.33,5.535-1.016,8.114v-0.001
		c-1.402,2.572,0.334,5.537-1.014,8.115c-0.193,11.101-2.17,22.023-3.514,32.997c-0.684,5.568-0.545,11.318-2.57,16.697
		c-2.998-3.359-0.137-7.625-1.252-10.944C347.604,188.9,347.394,195.07,344.886,200.944z"/>
	<path fill-rule="evenodd" clip-rule="evenodd" fill="#ECECEC" d="M341.868,23.465c-9.232-2.217-18.625-2.072-28.031-2.042
		c-23.25,0.073-46.504,0.32-69.748-0.081c-16.766-0.289-33.496-2.039-50.289-1.928c-1.496,1.374-3.34,1.488-5.188,1.26
		c-9.594-1.183-19.247-1.558-28.882-2.144c-9.913-1.542-19.904-2.485-29.865-3.64c-6.48-0.752-12.923-1.848-19.442-2.247
		c-0.578-0.049-1.147-0.157-1.71-0.29c-2.431-0.979-5.02-0.567-7.534-0.816c-5.856-1.088-11.804-1.47-17.697-2.267
		c-3.23-1.176-6.679-0.227-9.949-0.999c-4.482-1.1-9.167-0.709-13.655-1.88c-1.862-0.486-0.482,2.137-1.866,2.321
		c-1.229,0.665-2.48,0.73-3.75,0.141C53.192,7.748,53.341,7.096,54.967,7c-1.639-0.378-1.215,0.875-1.512,1.744
		c-1.012,2.965-2.178,5.877-3.681,8.639c-5.931,4.786-13.283,4.831-20.274,6.08c2.007-2.88,5.101-2.852,8.117-3.033
		c3.016-0.181,6.112-0.148,8.111-3.041c2.215-1.568,1.87-4.216,2.624-6.379c1.771-5.083,5.163-7.738,10.483-7.817
		c11.802-0.174,23.347,2.366,35.035,3.426c10,0.907,19.944,2.431,29.915,3.667c13.128,1.626,26.249,3.317,39.39,4.832
		c11.519,1.328,23.027,2.96,34.681,2.276c0.738,0.332,1.502,0.996,2.211,0.943c8.264-0.612,16.426,0.832,24.643,1.152
		c36.35,1.417,72.711,0.793,109.068,0.966C336.782,20.468,339.872,20.585,341.868,23.465z"/>
	<path fill-rule="evenodd" clip-rule="evenodd" fill="#E5E5E5" d="M357.083,127.935c-0.002-1.016-0.002-2.032-0.004-3.048
		c-0.563-2.848-0.619-5.871-2.83-8.149c-0.459-1.59-0.549-3.165,0.225-4.692c2.473-2.112,2.791-0.045,3.273,1.704
		c0.197,0.643,0.754-0.446,0.27,0.025c-0.207-2.203-2.057-3.572-2.799-5.51c-0.426-1.555-0.482-3.076,0.393-4.512
		c2.391-1.608,2.756,0.054,3.027,2.416c0.199-3.162-2.152-4.825-2.541-7.233c-0.088-9.418,2.244-18.565,3.113-27.878
		c0.621-6.668,1.41-13.32,2.365-19.952c0.293-2.035,0.354-4.064-1.752-5.339c-1.668-3.09-4.082-1.921-6.436-1.109
		c-1.461-0.061-3.283,0.519-3.418-1.908c0.785-0.436,1.57-0.872,2.486-1.382c-1.199-1.05-2.842-0.271-3.482-1.678
		c16.148,0.051,19.668,4.377,17.137,20.873c-2.484,16.189-4.119,32.486-6.146,48.733
		C359.188,115.509,359.245,121.915,357.083,127.935z"/>
	<path fill-rule="evenodd" clip-rule="evenodd" fill="#DADADA" d="M344.886,200.944c-0.186-6.511,1.672-12.768,2.369-20.221
		c2.746,4.777,1.273,9.09,1.715,13.134c-0.002,0.337-0.004,0.674-0.004,1.011c-2.463,5.199-0.924,10.865-1.674,16.295
		c-0.883,6.395-1.047,13.023-1.367,19.559c-0.67,13.743-1.352,27.485-2.027,41.227c-0.338,0.471-0.676,0.447-1.012-0.002
		c0.002-7.443,0.004-14.887,0.006-22.33c0.846-9.557,0.729-19.151,1.074-28.723c0.523-5.291,1.607-10.587-0.064-15.874
		C343.729,203.54,344.235,202.225,344.886,200.944z"/>
	<path fill-rule="evenodd" clip-rule="evenodd" fill="#E5E5E5" d="M356.067,136.048c0.445-2.691-1.016-5.622,1.016-8.114
		C356.642,130.626,358.089,133.555,356.067,136.048z"/>
	<path fill-rule="evenodd" clip-rule="evenodd" fill="#E5E5E5" d="M355.054,144.163c0.445-2.692-1.018-5.622,1.014-8.115
		C355.626,138.739,357.077,141.668,355.054,144.163z"/>
	<path fill-rule="evenodd" clip-rule="evenodd" fill="#E9E9E9" d="M21.388,248.623c-0.001,1.014-0.002,2.027-0.003,3.041
		c0.677,10.402-2.605,20.5-2.363,30.867c-0.113,1.439-0.451,2.834-0.799,4.227c-2.348,18.16-4.358,36.363-6.72,54.52
		c-1.279,9.83-2.28,19.695-3.741,29.504c-0.5,3.355-0.533,6.734,1.067,9.891c-1.937,4.805,3.472,3.008,4.582,5.064
		c0.067,1.025-0.447,2.295,1.379,2.461c1.273,0.115,2.628,0.281,3.555,1.396c4.247,1.162,7.597,3.221,8.11,8.115
		c-1.352-1.354-2.703-2.705-4.054-4.059c-2.1-1.654-4.762-1.453-7.147-1.918C4.95,389.73,1.785,385.107,3.205,374.687
		c2.194-16.104,3.991-32.26,6.038-48.385c2.278-17.951,4.748-35.879,6.947-53.84c1.874-15.307,3.474-30.646,5.243-45.967
		c0.088-0.768,0.631-1.482,0.963-2.223c2.306,2.674,1.067,5.912,1.424,8.897c-0.13,3.268,0.257,6.561-0.43,9.803
		C22.834,244.894,22.874,247.029,21.388,248.623z"/>
	<path fill-rule="evenodd" clip-rule="evenodd" fill="#E4E4E4" d="M22.41,233.417c-0.004-3.049-0.009-6.096-0.013-9.145
		c0.002-3.715,0.005-7.429,0.008-11.144c0.331-0.74,0.997-1.505,0.943-2.216c-0.625-8.281,0.737-16.477,1.203-24.69
		c2.912-51.224,1.598-102.489,1.893-153.738c0.013-2.25,0.147-4.396,2.037-5.978c-2.246,38.188-0.416,76.413-1.006,114.616
		c1.093,7.68,0.192,15.402,0.489,23.098c0.008,9.771-0.749,19.527-0.583,29.301c-0.445,8.351-1.38,16.676-1.525,25.044
		c-0.085,4.875-0.417,9.699-1.853,14.393C23.602,233.562,23.07,233.714,22.41,233.417z"/>
	<path fill-rule="evenodd" clip-rule="evenodd" fill="#F4F4F4" d="M323.618,412.923c0.672-0.004,1.346-0.008,2.018-0.01
		c-0.547,11.848-5.006,16.854-16.221,16.232c-0.676,0-1.352,0-2.027,0c-1.863-1.324-4.213,0.258-6.086-1.014
		c-1.014,0-2.027,0-3.041,0c-1.863-1.33-4.215,0.268-6.088-1.014c-17.068-2.035-34.141-4.047-51.205-6.107
		c-19.717-2.385-39.432-4.807-59.142-7.248c-0.433-0.055-0.81-0.547-1.213-0.836c2.033-0.004,4.066-0.01,6.098-0.016
		c3.376,0.004,6.753,0.008,10.128,0.012c6.953,1.217,14.027,0.703,21.023,1.574c18.697,2.328,37.408,4.543,56.109,6.852
		c11.689,1.443,23.416,2.588,35.078,4.279c2.748,0.398,5.35-0.461,7.943-1.168c2.684-1.34,3.406-4.018,4.42-6.5
		C322.108,416.265,322.204,414.306,323.618,412.923z"/>
	<path fill-rule="evenodd" clip-rule="evenodd" fill="#F8F8F8" d="M292.173,427.119c2.031,0.328,4.309-0.824,6.088,1.014
		c-2.029,0-4.059,0-6.088,0C292.173,427.794,292.173,427.457,292.173,427.119z"/>
	<path fill-rule="evenodd" clip-rule="evenodd" fill="#F8F8F8" d="M301.302,428.132c2.029,0.328,4.307-0.824,6.086,1.014
		C305.356,428.816,303.081,429.972,301.302,428.132z"/>
	<path fill-rule="evenodd" clip-rule="evenodd" fill="#FEFEFE" d="M341.868,215.033c0,61.513-0.072,123.027,0.131,184.541
		c0.018,5.281-1.494,6.365-6.508,6.357c-99.875-0.148-199.75-0.15-299.625,0.002c-5.039,0.008-6.499-1.115-6.492-6.371
		c0.163-122.857,0.126-245.717,0.127-368.575c0-6.495,0.006-6.499,6.63-6.499c99.707-0.001,199.412-0.001,299.117,0
		c6.613,0,6.619,0.004,6.619,6.511C341.868,92.343,341.868,153.688,341.868,215.033z"/>
	<path fill-rule="evenodd" clip-rule="evenodd" fill="#FEFEFE" d="M13.3,386.537c-1.541-1.865-7.236,0.467-5.127-5.08
		c-0.722-1.453-0.543-3.063-0.81-4.596c0.301-1.502,0.577-3.01,0.538-4.555c-0.009-1.275,0.166-2.529,0.427-3.771
		c0.449-1.434,0.611-2.906,0.598-4.404c0.018-1.258,0.124-2.506,0.409-3.732c0.474-1.422,0.614-2.895,0.606-4.387
		c0.018-1.258,0.124-2.504,0.409-3.73c0.476-1.426,0.612-2.898,0.604-4.395c0.018-1.262,0.125-2.514,0.409-3.744
		c0.482-1.434,0.606-2.916,0.587-4.418c-0.002-1.52,0.077-3.033,0.417-4.52c0.317-1.205,0.607-2.414,0.589-3.674
		c0.024-1.514,0.1-3.02,0.438-4.498c0.331-1.211,0.59-2.434,0.572-3.699c0.005-1.551,0.118-3.086,0.45-4.602
		c0.481-1.51,0.555-3.066,0.541-4.639c0.38-3.766,0.959-7.506,1.363-11.27c0.521-1.541,0.699-3.131,0.655-4.754
		c-0.199-3.051,0.839-5.967,0.964-8.982c0.049-1.414,0.396-2.783,0.614-4.172c1.112-9.035,2.04-18.094,3.458-27.092
		c0.096-1.492,0.583-2.848,1.439-4.07c1.659,1.5,0.955,3.484,0.956,5.252c0.037,42.852,0.025,85.705,0.022,128.559l0-0.002
		c-1.013,0-2.025-0.002-3.038-0.002C18.673,387.371,15.747,388.841,13.3,386.537z"/>
	<path fill-rule="evenodd" clip-rule="evenodd" fill="#FEFEFE" d="M355.103,111.702c-0.004,1.699-0.01,3.399-0.016,5.098
		c0.607,1.014,0.75,2.021-0.045,3.014c-1.975,5.861-1.725,12.065-2.691,18.086c-1.846,11.491-2.975,23.096-4.402,34.654
		c0.705,1.007,0.705,2.009-0.023,3.006c-1.543-1.331-0.959-3.137-0.961-4.749c-0.016-42.671,0.002-85.341,0.016-128.011
		c0.998-0.016,1.994-0.033,2.99-0.05c1.098,1.445,2.672,0.876,4.09,0.973c1.945-0.962,3.602-0.495,5.049,1.02
		c3.387-0.57,4.641,0.482,4.135,4.207c-1.992,14.697-3.627,29.443-5.623,44.14c-0.297,2.173-0.439,4.307-0.504,6.472
		c1.041,1.685,0.086,2.872-1,4.029c-0.006,1.698-0.01,3.395-0.016,5.094C357.192,110.159,356.196,110.947,355.103,111.702z"/>
	<path fill-rule="evenodd" clip-rule="evenodd" fill="#FCFCFC" d="M53.842,8.263c1.359-0.01,2.719-0.019,4.079-0.029
		c3.176-2.402,6.525-0.244,9.787-0.381c1.09,0.069,2.185,0.11,3.263,0.304c2.055,0.606,4.163,0.808,6.3,0.79
		c1.088,0.02,2.173,0.073,3.246,0.269c5.648,0.997,11.408,1.269,16.999,2.63c1.381,0.112,2.764,0.103,4.15,0.115
		c1.431,0.017,2.862,0.025,4.28,0.265c12.11,1.824,24.335,2.77,36.431,4.735c1.493,0.336,3.31,0.072,3.88,2.1
		c-1.511,2.155-3.819,1.848-5.966,1.85c-27.256,0.031-54.511,0.022-81.768,0.016c-2.036,0-4.064-0.007-5.686-1.533
		c-0.015-0.669-0.029-1.336-0.044-2.005C50.061,13.993,52.712,11.215,53.842,8.263z"/>
	<path fill-rule="evenodd" clip-rule="evenodd" fill="#FCFCFC" d="M318.526,410.919c0.014,0.666,0.025,1.33,0.039,1.996
		c1.178,1.314,1.238,2.859,0.928,4.48c-0.307,1.236-0.635,2.471-0.846,3.732c-0.268,1.014-0.658,1.936-1.764,2.309
		c-1.246,0.15-2.48-0.107-3.727-0.086c-1.479-0.023-2.959-0.064-4.41-0.4c-1.391-0.438-2.818-0.658-4.281-0.643
		c-0.744,0.006-1.484-0.027-2.225-0.094c-0.762-0.059-1.508-0.195-2.246-0.385c-1.502-0.521-3.066-0.438-4.621-0.455
		c-6.957-0.465-13.822-1.818-20.799-2.045c-1.357-0.115-2.666-0.467-3.971-0.828c-1.537-0.205-3.102-0.189-4.635-0.457
		c-1.471-0.301-2.906-0.809-4.441-0.744c-1.51-0.041-3.023-0.074-4.502-0.424c-1.193-0.344-2.4-0.611-3.654-0.598
		c-1.504-0.039-3.008-0.076-4.48-0.422c-1.193-0.342-2.398-0.605-3.65-0.592c-1.504-0.035-3.008-0.074-4.482-0.418
		c-1.43-0.465-2.906-0.639-4.406-0.654c-1.035-0.039-2.055-0.182-3.063-0.424c-1.568-0.539-3.221-0.479-4.84-0.693
		c-0.965-0.484-2.695-0.244-2.105-2.209c1.768-1.75,4.029-1.475,6.193-1.477c26.6-0.02,53.197-0.016,79.797-0.008
		C314.522,409.382,316.751,409.244,318.526,410.919z"/>
	<path fill-rule="evenodd" clip-rule="evenodd" fill="#E4E4E4" d="M142.08,18.397c-12.172-1.688-24.345-3.375-36.517-5.063
		c0.059-3.261,2.982-0.802,4.058-2.032c10.826,1.187,21.676,2.186,32.467,3.634c5.746,0.771,11.641,0.592,17.236,2.443
		c-0.491,0.631-1.165,0.922-1.925,1.052c-1.875,0.031-3.789-0.26-5.598,0.478c-0.632,0.313,0.37,1.055-0.013,0.497
		c-0.137-0.198-0.015-0.272,0.247-0.425c1.362-0.791,2.806-0.528,4.249-0.396c1.252,0.353,2.536,0.429,3.827,0.472
		c3.836,0.593,7.875,0.222,11.369,2.408c-1.51,1.637-3.491,0.964-5.266,0.966c-35.981,0.039-71.96,0.049-107.94-0.022
		c-2.167-0.004-5.551,1.424-5.437-3.015c29.502,0.009,59.004,0.026,88.506,0.004c1.613-0.001,3.417,0.58,4.746-0.965
		C144.762,17.3,143.422,17.735,142.08,18.397z"/>
	<path fill-rule="evenodd" clip-rule="evenodd" fill="#E6E6E6" d="M318.526,410.919c-29.166-0.01-58.332-0.027-87.496-0.004
		c-1.613,0-3.418-0.578-4.746,0.965c-0.752,0.881-1.742,0.939-2.787,0.828c-1.221-0.232-2.441-0.475-3.693-0.502
		c-1.533-0.037-3.066-0.08-4.574-0.418c-1.033-0.244-2.061-0.518-3.131-0.582c-4.053-0.879-8.502,0.297-12.203-2.369
		c1.51-1.633,3.492-0.957,5.268-0.959c35.979-0.039,71.959-0.051,107.938,0.021C315.265,407.904,318.655,406.472,318.526,410.919z"
		/>
	<path fill-rule="evenodd" clip-rule="evenodd" fill="#EBEBEB" d="M313.444,422.08c1.131-0.002,2.324-0.205,3.094,0.961
		c0.18,0.994,1.459,0.607,1.789,1.422c0.072,0.211,0.143,0.418,0.215,0.627c-6.215,4.051-12.814,1.313-19.139,0.736
		c-13.678-1.244-27.303-3.105-40.936-4.816c-15.127-1.9-30.236-3.936-45.361-5.867c-5.43-0.693-10.971-0.553-16.268-2.219
		c4.734-0.002,9.471-0.006,14.203-0.008c0.229-0.033,0.457-0.066,0.684-0.104c1.848-0.156,3.693-0.053,5.545-0.012
		c0.713,0.047,1.412,0.174,2.104,0.352c1.619,0.557,3.305,0.496,4.982,0.537c1,0.027,1.984,0.16,2.957,0.387
		c1.932,0.678,3.945,0.545,5.939,0.592c1.018,0.023,2.021,0.16,3.01,0.395c1.676,0.59,3.424,0.615,5.172,0.633
		c1.012,0.031,2.012,0.166,2.996,0.398c1.678,0.584,3.428,0.594,5.176,0.613c1.023,0.029,2.031,0.164,3.025,0.396
		c1.961,0.688,4.006,0.559,6.033,0.6c1.051,0.021,2.08,0.166,3.102,0.398c1.773,0.625,3.623,0.563,5.463,0.596
		c9.537,0.902,18.996,2.521,28.57,3.051c0.805,0.035,1.598,0.154,2.377,0.34c4.086,1.061,8.447,0.41,12.441,1.805
		C312.735,424.632,312.194,422.156,313.444,422.08z"/>
	<path fill-rule="evenodd" clip-rule="evenodd" fill="#E5E5E5" d="M23.421,257.755c-1.494,9.104-1.832,18.379-4.074,27.371
		c-1.881,0.096-1.625-0.871-1.003-2.018c-2.39-3.6-0.304-7.246,0.088-10.789c0.766-6.908,0.951-13.92,2.953-20.656
		c0.038,1.115-0.176,2.313,1.012,3.045C23.358,255.515,22.421,256.96,23.421,257.755z"/>
	<path fill-rule="evenodd" clip-rule="evenodd" fill="#D8D8D8" d="M199.896,408.837c4.385,0.35,8.768,0.701,13.152,1.051
		c0.471,1.262-0.469,1.59-1.311,1.986c-0.23,0.012-0.463,0.02-0.697,0.029c-14.531,0.354-28.917-2.328-43.446-2.09
		c-0.728,0.012-1.467-0.617-2.201-0.945c1.793-1.631,4.002-0.779,6.028-1.016c8.127-0.996,16.254,1.85,24.383,0.008
		C197.29,407.677,198.608,408.189,199.896,408.837z"/>
	<path fill-rule="evenodd" clip-rule="evenodd" fill="#D7D7D7" d="M23.413,233.408c0.699-12.624,1.386-25.243,2.133-37.862
		c0.035-0.583,0.593-1.134,0.907-1.701c1.456,1.414,0.851,3.251,1.013,4.929c0.001,1.7,0,3.402,0.001,5.103
		c-0.001,1.945,0.001,3.89-0.004,5.834c-0.003,0.812-0.01,1.626-0.059,2.437c-0.677,4.38-1.345,8.762,0.059,13.135
		c-0.646,5.408-2.372,10.68-2.037,16.211C21.938,239.5,22.958,236.382,23.413,233.408z"/>
	<path fill-rule="evenodd" clip-rule="evenodd" fill="#CCCCCC" d="M217.114,23.456c-13.85-0.39-27.742,1.026-41.551-1.007
		c2.295-4.328,6.38-2.608,9.866-2.917c0.57,0.114,1.121,0.294,1.648,0.536c4.893,0.676,9.803,1.028,14.742,0.886
		c4.969,0.219,9.875,1.269,14.871,1.098C217.327,22.37,217.47,22.838,217.114,23.456z"/>
	<path fill-rule="evenodd" clip-rule="evenodd" fill="#CCCCCC" d="M195.804,407.861c-3.461,1.842-6.92,2.146-10.906,1.412
		c-4.346-0.799-8.927-0.33-13.406-0.414c-4.564-1.135-9.21-0.162-13.795-0.563c-1.215-0.105-3.136,0.988-3.435-1.449
		C168.117,406.919,181.987,406.32,195.804,407.861z"/>
	<path fill-rule="evenodd" clip-rule="evenodd" fill="#DADADA" d="M185.685,20.432c-3.525-0.083-7.001,0.075-10.123,2.017
		c-1.483,0.181-2.801-0.323-4.082-0.984c-4.133,0.608-8.052-1.263-12.151-1.049c1.926-3.665,5.524-2.76,8.311-2.362
		c5.525,0.789,11.031,0.849,16.565,0.901C185.156,18.964,185.81,19.32,185.685,20.432z"/>
	<path fill-rule="evenodd" clip-rule="evenodd" fill="#CCCCCC" d="M344.915,220.228c0.451,9.088-1.711,18.075-1.086,27.178
		c0.049,0.711-0.609,1.473-0.938,2.211c0.002-11.822,0.004-23.643,0.006-35.464C346.073,215.346,345.479,217.792,344.915,220.228z"
		/>
	<path fill-rule="evenodd" clip-rule="evenodd" fill="#DCDCDC" d="M185.685,20.432c-8.785-0.477-17.568-4.095-26.356-0.017
		c-1.12-0.024-2.319,0.194-3.056-1c-0.648-1.165,0.461-1.451,1.008-2.019c0.68-0.006,1.361-0.013,2.042-0.019
		c11.544-0.202,22.975,1.521,34.477,2.035c0,0.338,0.002,0.675,0.004,1.012c-2.369,0.783-4.74,0.768-7.109,0.007l-0.504,0.002
		L185.685,20.432z"/>
	<path fill-rule="evenodd" clip-rule="evenodd" fill="#D6D6D6" d="M154.262,406.847c3.199,2.035,6.75,0.523,10.101,1.008
		c2.375,0.344,4.976-0.904,7.129,1.004c-2.033,0.004-4.065,0.006-6.098,0.01c-10.173,0.689-20.253-1.404-30.417-1.021
		c-0.333-0.225-0.445-0.449-0.333-0.674c0.112-0.223,0.223-0.334,0.335-0.334C141.407,406.841,147.834,406.843,154.262,406.847z"/>
	<path fill-rule="evenodd" clip-rule="evenodd" fill="#D6D6D6" d="M26.459,198.928c-0.002-1.693-0.004-3.388-0.006-5.082
		c-0.684-9.835,0.985-19.59,1.02-29.4c0.338-0.471,0.674-0.448,1.01,0.003c-0.002,5.073-0.004,10.147-0.006,15.221
		c-1.12,4.547-0.225,9.17-0.513,13.748c-0.037,1.72,0.087,3.446-0.095,5.164C27.515,199.168,27.045,199.283,26.459,198.928z"/>
	<path fill-rule="evenodd" clip-rule="evenodd" fill="#DCDCDC" d="M217.122,22.461c-5.094,0.018-10.201,0.229-15.211-1.015
		c-0.332-0.225-0.443-0.448-0.334-0.674c0.109-0.225,0.221-0.337,0.332-0.337c9.057,0.613,18.105,1.367,27.201,1.073
		c0.727-0.023,1.475,0.617,2.215,0.949C226.591,23.273,221.856,23.265,217.122,22.461z"/>
	<path fill-rule="evenodd" clip-rule="evenodd" fill="#DEDEDE" d="M23.413,233.408c-0.05,2.875,0.565,5.584,2.013,8.086
		c-1.063,1.777-1.112,3.742-0.985,5.713c0.108,1.688-0.596,2.045-2.039,1.416c-0.771-1.689-0.748-3.381-0.012-5.072
		c0.007-3.377,0.013-6.756,0.02-10.133C22.744,233.412,23.079,233.408,23.413,233.408z"/>
	<path fill-rule="evenodd" clip-rule="evenodd" fill="#E2E2E2" d="M53.842,8.263c-0.28,3.049-1.482,5.994-1.049,9.125
		c-1.007-0.002-2.013-0.004-3.02-0.006c-0.313-4.941,1.948-8.46,6.162-10.832C55.238,7.121,54.54,7.692,53.842,8.263z"/>
	<path fill-rule="evenodd" clip-rule="evenodd" fill="#EBEBEB" d="M317.552,421.056c0.01-1.129-0.191-2.324,0.971-3.092
		c2.596-0.719,1.256-3.842,3.072-5.037c0.334-0.002,0.668-0.006,1.002-0.012c0.34,0.002,0.682,0.006,1.021,0.008
		c-0.264,4.65-1.416,8.932-5.076,12.166l-0.016-0.021C317.276,423.957,318.634,422.208,317.552,421.056z"/>
	<path fill-rule="evenodd" clip-rule="evenodd" fill="#D1D1D1" d="M344.915,220.228c-0.096-2.218-0.541-4.318-2.018-6.075
		c0.191-3.06,1.488-5.998,1.004-9.132C346.792,209.919,346.589,215.025,344.915,220.228z"/>
	<path fill-rule="evenodd" clip-rule="evenodd" fill="#DCDCDC" d="M134.979,406.839c-0.003,0.334-0.003,0.67-0.002,1.008
		c-8.038,0-16.076,0-24.115,0c-0.004-0.338-0.008-0.674-0.012-1.008C118.893,406.839,126.937,406.839,134.979,406.839z"/>
	<path fill-rule="evenodd" clip-rule="evenodd" fill="#CFCFCF" d="M27.463,225.282c-2.141-4.252-2.955-8.607-1.003-13.172
		c2.654-0.307,0.723,2.427,2.007,3.027C28.654,218.572,26.876,221.81,27.463,225.282z"/>
	<path fill-rule="evenodd" clip-rule="evenodd" fill="#DCDCDC" d="M236.39,22.462c8.039,0,16.078,0,24.117,0
		c0.004,0.335,0.008,0.671,0.012,1.006c-8.043,0-16.086,0-24.131,0c-0.328-0.224-0.438-0.447-0.328-0.671
		C236.169,22.574,236.278,22.462,236.39,22.462z"/>
	<path fill-rule="evenodd" clip-rule="evenodd" fill="#E4E4E4" d="M13.3,386.537c2.718,0.168,5.544-0.52,8.089,1.023
		c-1.015,0.678-2.029,1.355-3.043,2.033c-1.961-0.002-3.945,0.184-5.776-0.791c-0.605-0.322-1.955-0.094-1.364-1.307
		C11.465,386.962,12.576,386.843,13.3,386.537z"/>
	<path fill-rule="evenodd" clip-rule="evenodd" fill="#DCDCDC" d="M28.483,164.448c-0.337-0.003-0.673-0.004-1.01-0.003
		c0.001-7.774,0.001-15.548,0.002-23.322c2.145,4.456,0.61,9.182,0.965,13.771C28.684,158.062,28.484,161.262,28.483,164.448z"/>
	<path fill-rule="evenodd" clip-rule="evenodd" fill="#D4D4D4" d="M236.39,22.462c0.002,0.335,0.002,0.671-0.002,1.006
		c-6.424-0.004-12.85-0.007-19.273-0.011c0.006-0.333,0.01-0.665,0.008-0.996c4.734-0.001,9.469-0.003,14.203-0.004
		C233.013,22.459,234.7,22.461,236.39,22.462z"/>
	<path fill-rule="evenodd" clip-rule="evenodd" fill="#E4E4E4" d="M321.595,412.927c-0.061,1.982,0.344,4.078-0.979,5.809
		c-1.377,1.803-1.783,0.549-2.094-0.771c0.014-1.682,0.027-3.365,0.043-5.049C319.575,412.919,320.585,412.923,321.595,412.927z"/>
	<path fill-rule="evenodd" clip-rule="evenodd" fill="#CFCFCF" d="M346.894,42.695c-0.996,0.022-1.996,0.043-2.994,0.065
		c-1.922-1.775-0.486-4.028-1.402-6.529C345.601,37.899,346.429,40.179,346.894,42.695z"/>
	<path fill-rule="evenodd" clip-rule="evenodd" fill="#CFCFCF" d="M24.427,387.564c5.129-0.609,4.035,2.969,3.965,6.252
		C25.704,392.388,25.008,390.013,24.427,387.564C24.427,387.562,24.427,387.564,24.427,387.564z"/>
	<path fill-rule="evenodd" clip-rule="evenodd" fill="#DCDCDC" d="M342.886,271.947c0.336,0.002,0.674,0.002,1.012,0.002
		c-0.002,5.744-0.002,11.49-0.002,17.236C341.69,283.548,343.442,277.679,342.886,271.947z"/>
	<path fill-rule="evenodd" clip-rule="evenodd" fill="#DADADA" d="M201.909,20.435c0.002,0.337,0.002,0.674,0.002,1.012
		c-5.057-0.569-10.27,1.2-15.216-1.013c2.369-0.002,4.738-0.005,7.109-0.007C196.505,20.428,199.208,20.431,201.909,20.435z"/>
	<path fill-rule="evenodd" clip-rule="evenodd" fill="#D0D0D0" d="M27.475,193.859c0.495-4.718-1.109-9.585,1.002-14.19
		c-0.004,4.732-0.009,9.463-0.013,14.196C28.132,194.313,27.802,194.312,27.475,193.859z"/>
	<path fill-rule="evenodd" clip-rule="evenodd" fill="#CACACA" d="M47.244,23.034c1.034-1.472,1.483-3.309,3.67-2.687
		c0.378,0.108,0.844,1.24,0.684,1.688C50.79,24.299,49.104,23.445,47.244,23.034z"/>
	<path fill-rule="evenodd" clip-rule="evenodd" fill="#C9C9C9" d="M27.475,193.859c0.33-0.002,0.66,0,0.99,0.006
		c0,4.386,0,8.77-0.001,13.156c-2.428-0.13-1.083-2.042-1.481-3.132c0.205-1.65-0.475-3.387,0.488-4.963
		C27.473,197.237,27.474,195.547,27.475,193.859z"/>
	<path fill-rule="evenodd" clip-rule="evenodd" fill="#CACACA" d="M324.267,407.16c-1.223,1.686-1.832,3.295-3.652,2.902
		c-0.855-0.186-1.199-1.305-0.799-2.094C320.731,406.158,322.327,406.908,324.267,407.16z"/>
	<path fill-rule="evenodd" clip-rule="evenodd" fill="#D8D8D8" d="M215.095,410.886c1.68,0.008,3.359,0.016,5.037,0.021
		c0.051,2.557-2.271,1.744-3.51,2.473c-1.859-0.158-3.789,0.516-5.584-0.457l0.004-0.008c-0.002-0.338-0.002-0.674-0.002-1.012
		l-0.004,0.002C212.296,411.199,213.698,411.052,215.095,410.886z"/>
	<path fill-rule="evenodd" clip-rule="evenodd" fill="#CFCFCF" d="M27.471,203.998c0.041,1.104-0.187,2.295,0.993,3.023
		c0,1.024-0.001,2.048-0.002,3.072c-0.668,0.59-1.334,0.588-1.999-0.006c-0.001-2.029-0.002-4.06-0.004-6.089
		C26.796,203.528,27.134,203.55,27.471,203.998z"/>
	<path fill-rule="evenodd" clip-rule="evenodd" fill="#C9C9C9" d="M26.463,210.087c0.667,0.002,1.333,0.003,2,0.005
		c0.002,1.683,0.004,3.364,0.006,5.046c-0.669-1.009-1.339-2.018-2.008-3.027C26.461,211.436,26.462,210.761,26.463,210.087z"/>
	<path fill-rule="evenodd" clip-rule="evenodd" fill="#DEDEDE" d="M23.421,257.755c-1.195-0.729-0.985-1.93-1.024-3.047
		c0.156-0.719,0.313-1.439,0.469-2.158c0.194,0.4,0.388,0.801,0.583,1.201C23.439,255.087,23.431,256.421,23.421,257.755z"/>
	<path fill-rule="evenodd" clip-rule="evenodd" fill="#E5E5E5" d="M22.39,243.55c0.004,1.689,0.008,3.381,0.012,5.072
		c-0.338,0-0.676,0-1.014,0C21.63,246.914,20.718,244.978,22.39,243.55z"/>
	<path fill-rule="evenodd" clip-rule="evenodd" fill="#DDDDDD" d="M347.925,175.559c0.008-1.002,0.016-2.004,0.023-3.006
		c1.379,1.917,1.844,3.982,1.166,6.957C347.573,178.063,348.11,176.695,347.925,175.559z"/>
	<path fill-rule="evenodd" clip-rule="evenodd" fill="#E2E2E2" d="M355.042,119.813c0.014-1.004,0.029-2.01,0.045-3.014
		c2.623,2.213,1.881,5.256,1.992,8.087C355.149,123.699,356.989,120.995,355.042,119.813z"/>
	<path fill-rule="evenodd" clip-rule="evenodd" fill="#E4E4E4" d="M97.453,13.288c-5.748-1-11.496-1.999-17.244-2.997
		c-0.313-2.005,1.255-1.758,2.406-2.012c0.212-0.007,0.426-0.014,0.639-0.021c6.169-0.083,12.224,0.863,18.254,2.03
		C101.585,13.219,98.313,11.624,97.453,13.288z"/>
	<path fill-rule="evenodd" clip-rule="evenodd" fill="#E2E2E2" d="M68.062,9.227c-3.38-0.331-6.761-0.661-10.141-0.991
		c0.846-0.951-0.084-3.507,2.313-2.972c4.256,0.951,8.764,0.191,12.878,1.982c-0.154,0.175-0.309,0.352-0.461,0.529
		C71.223,8.578,69.452,8.303,68.062,9.227z"/>
	<path fill-rule="evenodd" clip-rule="evenodd" fill="#E4E4E4" d="M77.184,10.251c-2.097,0.062-4.213,0.234-6.088-1.022
		c-0.605-1.956,1.59-1.067,2.011-1.981l0.005-0.002c3.369,0.458,6.934-1.049,10.142,1.013L83.25,8.261
		C81.294,9.128,78.94,8.777,77.184,10.251z"/>
	<path fill-rule="evenodd" clip-rule="evenodd" fill="#E4E4E4" d="M97.453,13.288c0.014-2.808,3.224-1.296,4.055-2.999
		c2.36,0.39,4.964-0.928,7.104,1.012c-2.318,0.82-4.86,0.847-7.086,1.993C100.167,13.292,98.811,13.29,97.453,13.288z"/>
	<path fill-rule="evenodd" clip-rule="evenodd" fill="#E4E4E4" d="M101.525,13.293c1.905-2.291,4.536-1.998,7.086-1.993
		c0.337-0.001,0.673,0,1.009,0.001c-0.869,1.644-3.19,0.385-4.058,2.032C104.217,13.32,102.872,13.307,101.525,13.293z"/>
	<path fill-rule="evenodd" clip-rule="evenodd" fill="#E2E2E2" d="M356.116,103.588c0.334-1.343,0.668-2.686,1-4.029
		c2.172,1.844,2.098,4.292,1.887,7.382C357.737,105.703,358.177,103.366,356.116,103.588z"/>
	<path fill-rule="evenodd" clip-rule="evenodd" fill="#E4E4E4" d="M359.108,44.741c-1.684-0.34-3.367-0.68-5.051-1.02
		C359.204,41.044,359.259,41.055,359.108,44.741z"/>
	<path fill-rule="evenodd" clip-rule="evenodd" fill="#E2E2E2" d="M355.103,111.702c0.332-1.007,0.664-2.014,0.998-3.021
		c2.719,1.461,2.047,3.819,1.717,6.305C356.663,113.92,357.321,111.593,355.103,111.702z"/>
	<path fill-rule="evenodd" clip-rule="evenodd" fill="#E3E3E3" d="M9.238,368.316c-0.017,1.344-0.034,2.686-0.05,4.029
		c-1.307,1.123-0.929,2.645-0.966,4.07c-0.017,1.68-0.032,3.361-0.049,5.041c-2.996-2.807-2.324-6.475-1.911-9.822
		c2.545-20.602,5.328-41.172,7.92-61.768c0.878-6.98,1.449-14,2.125-21.004c0.099-1.025,0.095-2.031,1.021-2.719
		c1.687,0.336,1.169,2.119,1.988,3.023c-0.171,3.063-1.451,6-1.002,9.131c-1.692,1.041-0.356,2.797-0.964,4.094
		c0.592,4.127-1.236,8.043-1.063,12.135c-1.694,1.037-0.36,2.793-0.971,4.088c-0.016,1.68-0.032,3.357-0.048,5.037
		c-1.125,0.771-0.976,1.941-0.954,3.07c-0.021,1.682-0.04,3.361-0.061,5.043c-1.125,0.773-0.976,1.941-0.953,3.07
		c-0.021,1.682-0.042,3.363-0.063,5.043c-1.688,1.043-0.352,2.797-0.963,4.092c-0.016,1.342-0.032,2.682-0.048,4.023
		c-1.689,1.037-0.357,2.793-0.97,4.086c-0.015,1.344-0.029,2.686-0.043,4.027c-1.692,1.043-0.354,2.797-0.962,4.096
		c-0.017,1.34-0.033,2.68-0.049,4.018C8.506,365.263,9.845,367.019,9.238,368.316z"/>
	<path fill-rule="evenodd" clip-rule="evenodd" fill="#E1E1E1" d="M19.315,289.167c-0.663-1.008-1.325-2.016-1.988-3.023
		c0.038-1.113-0.18-2.311,1.017-3.035c0.02,0.828,0.192,1.582,1.004,2.018C19.337,286.474,19.327,287.822,19.315,289.167z"/>
	<path fill-rule="evenodd" clip-rule="evenodd" fill="#E9E9E9" d="M15.316,318.615c-0.35-1.523-2.844-3.555,0.972-4.088
		C16.196,315.945,16.755,317.517,15.316,318.615z"/>
	<path fill-rule="evenodd" clip-rule="evenodd" fill="#E9E9E9" d="M17.35,302.392c-0.358-1.525-2.84-3.549,0.964-4.094
		C18.224,299.716,18.78,301.289,17.35,302.392z"/>
	<path fill-rule="evenodd" clip-rule="evenodd" fill="#E9E9E9" d="M8.222,376.416c-1.418-1.77-1.874-3.313,0.966-4.07
		C9.098,373.757,9.66,375.324,8.222,376.416z"/>
	<path fill-rule="evenodd" clip-rule="evenodd" fill="#E9E9E9" d="M9.238,368.316c-0.408-1.537-2.758-3.531,0.964-4.094
		C10.115,365.642,10.667,367.212,9.238,368.316z"/>
	<path fill-rule="evenodd" clip-rule="evenodd" fill="#E9E9E9" d="M11.257,352.08c-0.379-1.529-2.784-3.539,0.971-4.086
		C12.14,349.412,12.697,350.984,11.257,352.08z"/>
	<path fill-rule="evenodd" clip-rule="evenodd" fill="#E9E9E9" d="M10.251,360.203c-0.402-1.535-2.765-3.531,0.962-4.096
		C11.126,357.527,11.682,359.097,10.251,360.203z"/>
	<path fill-rule="evenodd" clip-rule="evenodd" fill="#E9E9E9" d="M12.275,343.97c-0.384-1.529-2.782-3.533,0.964-4.092
		C13.157,341.298,13.707,342.869,12.275,343.97z"/>
	<path fill-rule="evenodd" clip-rule="evenodd" fill="#E9E9E9" d="M14.314,326.722c-1.161-0.789-1.329-1.947-0.789-3.061
		c0.352-0.727,1.147-0.156,1.743-0.01C15.277,324.777,15.471,325.958,14.314,326.722z"/>
	<path fill-rule="evenodd" clip-rule="evenodd" fill="#E9E9E9" d="M13.301,334.835c-1.162-0.787-1.33-1.945-0.791-3.061
		c0.352-0.727,1.148-0.156,1.744-0.01C14.262,332.89,14.456,334.072,13.301,334.835z"/>
	<path fill-rule="evenodd" clip-rule="evenodd" fill="#E2E2E2" d="M77.184,10.251c1.33-2.776,3.89-1.797,6.067-1.99
		c-1.014,0.676-2.028,1.353-3.042,2.029C79.201,10.277,78.192,10.264,77.184,10.251z"/>
	<path fill-rule="evenodd" clip-rule="evenodd" fill="#DCDCDC" d="M142.08,18.397c1.382-1.607,3.296-1.22,4.839-0.771
		c0.74,0.215-0.414,0.605-0.83,0.807C144.752,18.421,143.416,18.409,142.08,18.397z"/>
	<path fill-rule="evenodd" clip-rule="evenodd" fill="#E2E2E2" d="M73.106,7.247c-0.67,0.661-1.341,1.321-2.012,1.981
		c-1.011-0.001-2.023-0.001-3.034-0.002C69.391,7.668,71.138,7.177,73.106,7.247z"/>
	<path fill-rule="evenodd" clip-rule="evenodd" fill="#E4E4E4" d="M217.126,412.923c1.002-0.672,2.004-1.344,3.006-2.016
		c1.129,0.016,2.334-0.201,3.078,1c1.213,1.025,2.727,0.217,4.037,0.656c1.988,1.068,4.133-0.641,6.127,0.342
		c1.006,0.006,2.012,0.012,3.018,0.018c1.066,1.502,2.656,0.879,4.064,0.998c1.682,0.018,3.365,0.035,5.047,0.053
		c0.773,1.121,1.943,0.967,3.068,0.955c1.682,0.02,3.363,0.039,5.045,0.059c0.775,1.121,1.943,0.969,3.07,0.951
		c1.682,0.02,3.363,0.039,5.045,0.061c1.146,1.219,2.537,1.402,4.076,0.969c1.684,0.016,3.367,0.029,5.051,0.045
		c0.703,1.316,1.598,2.035,3.061,0.977c7.51-0.18,14.838,1.611,22.291,2.055c0.566,0.604,0.43,1.379,0.521,2.102
		c-0.016,0.387-0.184,0.691-0.502,0.916c-9.895-0.129-19.586-2.229-29.41-3.045c-1.51-1.246-3.553,0.184-5.072-1.012
		c-1.014,0-2.027,0-3.041-0.002c-1.867-1.318-4.213,0.254-6.086-1.012c-1.016-0.002-2.027-0.002-3.043-0.002
		c-1.508-1.248-3.553,0.182-5.07-1.012c-1.016-0.002-2.027-0.002-3.043-0.002c-1.508-1.248-3.553,0.182-5.07-1.014
		c-1.016,0-2.029,0-3.043-0.002c-1.865-1.318-4.211,0.256-6.086-1.012c-1.014,0-2.027-0.002-3.041-0.002
		c-1.51-1.248-3.553,0.182-5.072-1.012c-0.676,0-1.352,0-2.027-0.002c-0.355-0.225-0.473-0.449-0.355-0.672
		C216.886,413.035,217.005,412.923,217.126,412.923z"/>
	<path fill-rule="evenodd" clip-rule="evenodd" fill="#E2E2E2" d="M313.444,422.08c-0.844,0.949,0.086,3.504-2.314,2.965
		c-4.254-0.955-8.762-0.191-12.875-1.982c0.957-1.459,2.953-0.809,4.047-1.99c0.674-0.004,1.348-0.01,2.02-0.014
		c1.037,1.691,2.791,0.375,4.09,0.975C310.089,422.048,311.767,422.064,313.444,422.08z"/>
	<path fill-rule="evenodd" clip-rule="evenodd" fill="#E2E2E2" d="M302.302,421.072c-0.779,1.824-2.326,2.08-4.047,1.99
		c-0.674,0-1.35,0-2.025,0c0-0.34,0-0.678,0-1.016c1.031-1.635,2.395-1.949,4.07-1.027
		C300.966,421.037,301.634,421.054,302.302,421.072z"/>
	<path fill-rule="evenodd" clip-rule="evenodd" fill="#E6E6E6" d="M240.456,413.921c-1.693,1.041-3.514,2.604-4.064-0.998
		C237.8,413.042,239.376,412.466,240.456,413.921z"/>
	<path fill-rule="evenodd" clip-rule="evenodd" fill="#E6E6E6" d="M233.374,412.906c-2.035-0.037-4.064,2.34-6.105,0.02
		c0.484-0.715,1.523-0.328,2.021-1.016C230.708,412.009,232.286,411.457,233.374,412.906z"/>
	<path fill-rule="evenodd" clip-rule="evenodd" fill="#E6E6E6" d="M265.808,416.968c-1.611,0.736-3.623,3.162-4.076-0.969
		C263.216,415.796,264.536,416.281,265.808,416.968z"/>
	<path fill-rule="evenodd" clip-rule="evenodd" fill="#EBEBEB" d="M308.411,422.033c-1.396-0.186-3.752,3.645-4.09-0.977
		C305.739,421.156,307.315,420.585,308.411,422.033z"/>
	<path fill-rule="evenodd" clip-rule="evenodd" fill="#E6E6E6" d="M248.571,414.929c-0.791,1.154-1.947,1.32-3.059,0.783
		c-0.727-0.352-0.158-1.145-0.01-1.738C246.628,413.966,247.812,413.767,248.571,414.929z"/>
	<path fill-rule="evenodd" clip-rule="evenodd" fill="#E6E6E6" d="M256.687,415.939c-0.787,1.158-1.945,1.324-3.059,0.789
		c-0.729-0.352-0.16-1.146-0.012-1.74C254.739,414.982,255.925,414.775,256.687,415.939z"/>
	<path fill-rule="evenodd" clip-rule="evenodd" fill="#E4E4E4" d="M317.552,421.056c1.465,1.061,0.85,2.627,0.975,4.012
		c-0.863-0.336-1.725-0.672-2.588-1.006c-0.426-0.164-0.84-0.375-0.293-0.824c0.209-0.172,0.59-0.139,0.893-0.197
		C317.339,422.615,317.507,421.867,317.552,421.056z"/>
	<path fill-rule="evenodd" clip-rule="evenodd" fill="#EBEBEB" d="M300.3,421.019c-1.475-0.127-2.803,0.328-4.07,1.027
		c-1.121-0.658-0.092-1.336-0.018-2.002C297.626,420.146,299.204,419.57,300.3,421.019z"/>
	<path fill-rule="evenodd" clip-rule="evenodd" fill="#DBDBDB" d="M229.29,411.91c-0.436,0.814-1.191,0.986-2.021,1.016
		c-1.4-0.154-2.994,0.471-4.059-1.018c1.023-0.01,2.049-0.018,3.072-0.027C227.286,411.89,228.286,411.9,229.29,411.91z"/>
	<path fill-rule="evenodd" clip-rule="evenodd" fill="#E6E6E6" d="M273.919,417.99c-0.799,1.141-1.928,1.254-3.049,0.736
		c-0.221-0.102-0.02-1.119-0.012-1.713C271.878,417.339,272.897,417.664,273.919,417.99z"/>
	<path fill-rule="evenodd" clip-rule="evenodd" fill="#DADADA" d="M157.282,17.397c-0.336,0.673-0.672,1.345-1.008,2.019
		c-1.653,0-3.306,0-5.569,0C152.817,16.872,155.164,17.526,157.282,17.397z"/>
	<path fill-rule="evenodd" clip-rule="evenodd" fill="#E1E1E1" d="M215.095,410.886c-1.063,1.492-2.656,0.873-4.059,1.02
		c0.672-0.672,1.342-1.344,2.012-2.018C213.89,409.894,214.649,410.068,215.095,410.886z"/>
	<path fill-rule="evenodd" clip-rule="evenodd" fill="#E6E6E6" d="M252.62,417.992c2.029,0.326,4.307-0.824,6.086,1.012
		C256.675,418.677,254.399,419.828,252.62,417.992z"/>
	<path fill-rule="evenodd" clip-rule="evenodd" fill="#E6E6E6" d="M217.126,412.923c-0.002,0.338-0.002,0.674-0.002,1.01
		c-2.031-0.328-4.305,0.822-6.086-1.01C213.067,412.923,215.097,412.923,217.126,412.923z"/>
	<path fill-rule="evenodd" clip-rule="evenodd" fill="#E6E6E6" d="M227.265,414.949c2.031,0.326,4.307-0.824,6.086,1.012
		C231.321,415.636,229.044,416.785,227.265,414.949z"/>
	<path fill-rule="evenodd" clip-rule="evenodd" fill="#E6E6E6" d="M261.747,419.005c1.709,0.244,3.65-0.678,5.072,1.012
		C265.11,419.775,263.169,420.695,261.747,419.005z"/>
	<path fill-rule="evenodd" clip-rule="evenodd" fill="#E6E6E6" d="M236.394,415.962c1.709,0.246,3.65-0.676,5.07,1.014
		C239.755,416.732,237.813,417.652,236.394,415.962z"/>
	<path fill-rule="evenodd" clip-rule="evenodd" fill="#E6E6E6" d="M219.151,413.935c1.709,0.244,3.65-0.676,5.072,1.012
		C222.515,414.703,220.573,415.623,219.151,413.935z"/>
	<path fill-rule="evenodd" clip-rule="evenodd" fill="#E6E6E6" d="M244.507,416.978c1.709,0.244,3.65-0.678,5.07,1.012
		C247.868,417.746,245.927,418.666,244.507,416.978z"/>
	<path fill-rule="evenodd" clip-rule="evenodd" fill="#D0D0D0" d="M27.471,203.998c-0.337,0-0.675,0-1.012,0c0-1.689,0-3.38,0-5.07
		c0.337-0.001,0.674-0.001,1.012-0.002C27.471,200.616,27.471,202.307,27.471,203.998z"/>
</g>
</svg>
